<?xml version="1.0" encoding="UTF-8" standalone="no"?>
<svg
   xmlns:dc="http://purl.org/dc/elements/1.1/"
   xmlns:cc="http://creativecommons.org/ns#"
   xmlns:rdf="http://www.w3.org/1999/02/22-rdf-syntax-ns#"
   xmlns:svg="http://www.w3.org/2000/svg"
   xmlns="http://www.w3.org/2000/svg"
   viewBox="0 0 2464.0266 751.1333"
   height="751.1333"
   width="2464.0266"
   xml:space="preserve"
   id="svg2"
   version="1.1"><metadata
     id="metadata8"><rdf:RDF><cc:Work
         rdf:about=""><dc:format>image/svg+xml</dc:format><dc:type
           rdf:resource="http://purl.org/dc/dcmitype/StillImage" /></cc:Work></rdf:RDF></metadata><defs
     id="defs6" /><g
     transform="matrix(1.3333333,0,0,-1.3333333,0,751.13333)"
     id="g10"><g
       transform="scale(0.1)"
       id="g12"><g
         transform="scale(1.13374)"
         id="g14"><path
           id="path16"
           style="fill:#2c4186;fill-opacity:1;fill-rule:nonzero;stroke:none"
           d="M 15893.6,4968.86 H 405.857 c -224.402,0 -406.425499,-182.12 -406.425499,-406.47 V 406.601 C -0.568499,182.123 181.455,0.141263 405.857,0.141263 H 6367.98 L 16300.2,3294.47 v 1267.92 c 0,224.35 -181.8,406.47 -406.6,406.47" /></g><g
         transform="scale(1.13371)"
         id="g18"><path
           id="path20"
           style="fill:#50b1da;fill-opacity:1;fill-rule:nonzero;stroke:none"
           d="M 16300,406.612 V 3294.73 l -9,-2.48 c -193.5,7.34 -346.7,17.67 -543.3,17.67 -3694.5,0 -7017.42,-1223.98 -9323.66,-3285.8839 L 6367.35,0.168832 h 9526.05 c 224.5,0 406.6,181.959168 406.6,406.443168" /></g><g
         transform="scale(1.08282)"
         id="g22"><path
           id="path24"
           style="fill:#ffffff;fill-opacity:1;fill-rule:nonzero;stroke:none"
           d="m 6445.91,2678.3 c 0,13.97 0.66,32.13 -2.31,42.78 -3.64,13.82 1.61,36.32 -2.25,49.44 v 36.12 h -2.28 v 27.08 h -2.25 v 24.8 h -2.1 v 20.28 h -2.11 v 22.49 c -4.54,14.14 -5.21,35.28 -9.43,49.6 l -2.1,31.41 h -2.44 c -1.4,12.79 -2.98,25.5 -4.35,38.25 -7.52,23.6 -10.65,53.44 -17.99,76.66 v 11.19 h -2.26 v 9.08 h -2.26 v 8.89 h -2.46 v 8.9 h -2.26 v 9.27 h -2.12 v 9.08 h -2.24 v 6.65 h -2.1 c -0.87,6.09 -1.76,11.87 -2.46,17.97 h -2.1 c -1.39,7.54 -3.18,14.84 -4.53,22.52 h -2.27 c -1.57,7.52 -2.97,14.99 -4.56,22.53 h -2.09 v 6.81 h -2.26 v 6.65 h -2.44 v 6.8 h -2.29 v 6.8 h -2.25 v 6.66 h -2.12 c -1.55,6.98 -2.99,13.78 -4.52,20.44 h -2.46 v 4.34 h -2.1 c -1.55,6.8 -2.77,13.62 -4.51,20.41 h -2.29 v 4.39 h -2.1 v 6.81 h -2.28 v 4.54 h -2.07 c -1.07,3.66 -1.74,7.5 -2.43,10.99 h -2.1 v 6.85 h -2.46 v 4.67 h -2.11 v 6.81 h -2.41 v 4.39 h -2.47 v 6.64 h -2.09 v 4.68 h -2.1 c -0.7,3 -1.39,5.98 -2.42,8.93 h -2.1 v 6.8 h -2.28 v 4.54 h -2.28 c -0.7,2.98 -1.74,5.92 -2.09,9.1 h -2.45 v 6.63 h -2.09 v 4.36 h -2.45 c -0.69,3.33 -1.39,6.1 -2.08,9.27 h -2.29 v 4.55 h -2.27 v 4.35 h -2.09 v 4.35 h -2.26 v 4.52 h -2.62 v 4.76 h -2.11 c -0.68,2.92 -1.36,5.77 -2.25,8.89 h -2.27 l -2.11,9.07 h -2.45 v 4.54 h -2.11 v 4.35 l -4.51,4.56 v 4.38 c -1.59,0.88 -2.98,1.72 -4.51,2.41 v 4.21 l -4.41,4.71 v 4.73 h -2.25 v 4.35 c -1.75,0.7 -3.18,1.37 -4.54,2.46 -1.4,4.18 -3.14,8.75 -4.55,13.25 -1.41,0.7 -2.97,1.59 -4.56,2.29 -0.69,3.16 -1.39,5.94 -2.41,9.08 -1.08,0.7 -2.8,1.39 -4.2,2.09 l -2.27,9.07 c -1.59,0.71 -2.99,1.57 -4.53,2.45 -0.88,2.1 -1.58,4.35 -2.3,6.64 h -2.09 c -1.05,2.8 -1.75,5.91 -2.44,8.9 -1.57,0.87 -2.98,1.57 -4.55,2.27 v 4.51 c -1.42,0.94 -2.95,1.61 -4.53,2.1 v 4.93 c -1.4,0.51 -2.79,1.21 -4.55,2.09 v 4.53 c -1.23,0.7 -2.95,1.39 -4.34,2.28 v 4.34 c -1.58,0.88 -3,1.56 -4.73,2.29 v 4.34 c -1.38,0.76 -2.79,1.8 -4.21,2.48 v 4.33 c -1.72,0.94 -3.13,1.6 -4.68,2.47 v 4.18 c -2.31,1.59 -4.35,3.31 -6.66,4.73 v 4.54 c -1.57,0.7 -2.95,1.4 -4.35,2.27 v 4.52 c -2.42,1.22 -4.72,2.99 -6.98,4.58 v 4.17 c -2.45,1.75 -4.55,3.31 -6.64,4.52 v 4.57 c -2.44,1.55 -4.74,3.12 -6.82,4.54 v 4.67 c -2.26,1.27 -4.55,2.85 -6.61,4.41 v 4.54 c -1.58,0.68 -2.98,1.55 -4.72,2.1 v 2.42 c -1.43,0.71 -2.98,1.59 -4.22,2.14 v 4.67 c -3.3,2.09 -6.1,4.4 -9.4,6.45 v 4.56 c -3.48,3.3 -7.36,6.12 -11.01,9.08 v 4.73 h -2.3 c -1.73,2.09 -2.94,4.52 -4.53,6.63 l -4.5,2.26 v 4.4 c -3.69,3.11 -7.71,6.1 -11.18,9.03 -5.42,6.84 -10.62,13.64 -15.74,20.45 -7.51,6.63 -15.2,13.29 -22.71,19.91 v 4.72 c -5.75,5.21 -11.88,10.47 -17.89,15.71 -2.18,3.14 -4.71,6.1 -6.84,8.9 h -4.42 v 2.43 c -2.18,1.38 -4.56,3 -6.98,4.36 -8.03,9.08 -16.34,18.18 -24.53,27.26 -2.1,0.69 -4.64,1.43 -6.85,2.09 l -13.5,15.9 h -4.61 c -2.89,3.63 -5.95,7.37 -9.03,11.18 h -4.25 c -3.25,3.84 -6.13,7.68 -9.09,11.17 h -4.53 c -0.7,1.4 -1.4,3.12 -2.45,4.54 h -2.22 c -0.67,1.56 -1.2,2.96 -2.04,4.35 h -4.56 c -2.28,3.17 -4.47,6.11 -6.82,9.26 h -4.44 c -2.29,2.99 -4.45,6.12 -6.54,9.09 h -4.92 c -1.22,2.08 -2.85,4.52 -4.47,6.61 -2.14,0.87 -4.43,1.6 -6.79,2.3 -0.52,1.41 -1.36,3.14 -2.1,4.53 h -4.52 c -0.68,1.4 -1.58,2.99 -2.27,4.38 h -4.29 l -4.53,6.8 h -4.64 c -0.83,1.4 -1.38,3.14 -2.09,4.7 h -4.89 c -0.52,1.21 -1.21,2.79 -2.1,4.19 h -4.47 c -1.47,2.46 -2.89,4.58 -4.51,6.8 h -4.47 c -0.67,1.76 -1.56,3.34 -2.05,4.56 -2.39,0.88 -4.75,1.58 -6.85,2.28 v 2.23 h -4.7 c -0.73,1.63 -1.39,2.99 -2.09,4.41 -3.07,0.86 -6.14,1.56 -9.17,2.25 l -2.28,4.73 c -2.17,0.7 -4.26,1.37 -6.62,2.11 v 2.43 c -2.92,0.69 -5.96,1.4 -8.93,2.09 l -2.35,4.7 c -2.16,0.54 -4.44,1.4 -6.63,2.09 v 2.3 c -3.04,0.5 -6.01,1.38 -9.08,2.09 -0.7,1.74 -1.5,3.13 -2.37,4.51 -4.43,1.61 -8.91,3.35 -13.38,4.56 -0.78,1.59 -1.62,3.18 -2.32,4.39 h -4.28 l -4.64,4.69 h -4.72 v 2.28 h -4.45 l -2.35,4.55 h -4.28 l -4.65,4.34 h -4.44 v 2.44 h -4.46 v 2.11 h -4.51 v 2.11 h -4.47 v 2.45 h -4.61 v 2.26 h -4.48 v 2.08 h -4.43 v 2.43 h -4.54 v 2.3 h -4.66 v 2.1 c -2.87,0.85 -5.82,1.57 -8.88,2.26 v 2.43 c -3.08,0.69 -6.11,1.41 -9.18,2.11 v 2.27 c -2.79,0.7 -5.66,1.56 -8.71,2.25 v 2.3 h -4.63 v 2.25 h -6.83 v 2.3 h -4.25 v 2.25 c -3.24,0.68 -6.11,1.39 -9.2,2.09 v 2.28 h -6.69 v 2.28 c -2.9,0.87 -5.77,1.55 -8.99,2.24 v 2.09 h -6.81 v 2.47 h -4.46 v 2.1 c -3.77,0.86 -7.68,1.57 -11.27,2.27 v 2.25 h -6.8 v 2.46 h -4.66 v 2.27 c -4.27,0.53 -8.89,1.22 -13.41,2.11 v 2.43 h -4.45 v 2.1 h -6.66 v 2.25 h -6.9 v 2.29 h -6.61 v 2.25 h -6.84 v 2.1 h -4.6 v 2.45 l -29.15,6.79 v 2.1 h -6.84 v 2.29 h -6.63 v 2.08 h -6.64 v 2.48 l -16.05,2.25 v 2.09 l -15.72,2.45 v 2.28 h -8.91 v 2.1 c -5.4,0.69 -10.38,1.57 -15.78,2.4 v 2.29 h -11.3 v 2.1 h -6.79 v 2.28 h -11.27 v 2.26 c -6.57,0.88 -13.33,1.58 -20.18,2.12 v 2.23 h -9.08 v 2.28 c -6.66,1.06 -13.44,1.58 -20.25,2.28 v 2.29 h -13.36 c -10.22,3.3 -26.09,5.91 -36.16,9.07 -10.53,0.71 -20.94,1.38 -31.67,2.27 -14.05,4.18 -34.68,4.54 -49.48,8.9 h -20.22 v 2.26 h -22.47 v 2.27 c -12.81,0.87 -25.61,1.57 -38.37,2.28 h -22.53 c -12.48,3.67 -34.66,-1.41 -47.16,2.28 -11.87,3.49 -32.02,2.09 -47.39,2.09 h -87.8 c -8.41,-7.36 -32.33,0.85 -44.88,-2.09 -26.8,-6.13 -79.75,-2.28 -110.47,-11.18 h -20.43 v -2.47 H 4759 v -2.09 h -15.75 v -2.25 h -15.91 v -2.27 h -13.41 v -2.28 h -13.35 v -2.09 h -11.27 v -2.47 h -13.79 v -2.23 c -7.35,-0.75 -15.03,-1.43 -22.36,-2.29 v -2.28 h -11.29 v -2.28 h -11.24 v -2.23 h -9 v -2.12 h -9.07 v -2.26 h -11.29 v -2.28 c -8.88,-1.56 -18.06,-2.97 -26.96,-4.39 v -2.4 c -8.18,-1.4 -16.5,-2.99 -24.72,-4.38 v -2.45 c -5.3,-0.7 -10.71,-1.41 -16.06,-2.09 v -2.25 c -7.32,-1.44 -14.99,-3.18 -22.34,-4.56 v -2.29 h -6.83 v -2.1 h -6.75 v -2.42 h -6.67 v -2.28 h -6.72 v -2.09 h -6.64 v -2.45 h -6.79 v -2.1 h -6.81 v -2.25 h -6.83 v -2.29 h -6.8 c -52.75,-23.23 -108.71,-42.92 -155.31,-71.95 h -4.47 l -4.56,-4.53 h -4.61 v -2.25 h -4.28 c -0.89,-1.61 -1.59,-3.34 -2.57,-4.55 h -4.42 l -4.47,-4.55 h -4.42 c -0.75,-1.6 -1.68,-3.13 -2.38,-4.53 -2.87,-0.69 -6.11,-1.39 -8.91,-2.28 -0.79,-1.21 -1.46,-2.95 -2.16,-4.56 h -4.47 v -2.1 h -4.66 v -2.41 c -2.32,-0.71 -4.51,-1.59 -6.78,-2.09 -0.69,-1.59 -1.48,-2.99 -2.35,-4.39 h -4.27 c -0.89,-1.71 -1.59,-3.11 -2.38,-4.7 -2.76,-0.69 -6,-1.4 -8.9,-2.09 l -2.18,-4.54 h -4.63 c -0.85,-1.56 -1.38,-2.97 -2.1,-4.73 h -4.7 c -1.41,-2.25 -2.79,-4.35 -4.63,-6.66 h -4.29 l -2.36,-4.51 c -2.24,-0.7 -4.45,-1.22 -6.54,-2.26 v -2.3 h -4.67 c -0.76,-1.54 -1.44,-2.77 -2.14,-4.34 -2.34,-0.69 -4.44,-1.59 -6.81,-2.46 -1.4,-2.09 -3.24,-4.19 -4.45,-6.45 h -4.72 c -1.41,-2.44 -2.79,-4.54 -4.47,-6.82 h -4.43 c -1.58,-2.42 -2.89,-4.7 -4.46,-6.8 h -4.46 c -1.64,-2.44 -3.04,-4.53 -4.67,-6.83 h -4.31 l -2.26,-4.53 h -2.38 c -0.69,-1.58 -1.39,-2.95 -2.34,-4.36 h -4.44 c -2.89,-3.82 -5.87,-7.51 -8.95,-11.34 h -4.61 c -3.57,-4.73 -7.49,-9.08 -11.08,-13.62 h -4.51 c -4.65,-5.07 -9.09,-10.47 -13.54,-15.74 h -4.47 c -7.34,-8.18 -15.28,-16.37 -22.79,-24.6 h -4.46 c -7.3,-8.41 -14.84,-16.59 -22.36,-24.64 -18.95,-19.03 -38.24,-36.65 -54.11,-58.65 -6.11,-5.42 -12.07,-10.63 -17.93,-15.72 v -4.73 c -4.42,-3.64 -9.12,-7.5 -13.6,-11.34 v -4.35 c -3.77,-2.98 -7.48,-6.14 -11.26,-8.94 v -4.51 c -2.88,-2.26 -6.06,-4.71 -8.89,-6.99 v -4.56 c -3.21,-2.05 -6.1,-4.36 -9.04,-6.45 v -4.67 c -3.12,-2.14 -6,-4.56 -9.21,-6.66 v -4.54 c -1.24,-0.89 -2.89,-1.56 -4.29,-2.31 v -4.33 c -3.04,-2.44 -6.12,-4.75 -9,-6.98 v -4.57 c -2.27,-1.21 -4.63,-2.77 -6.72,-4.52 v -4.17 c -1.64,-0.74 -3.23,-1.59 -4.52,-2.29 v -4.55 c -2.27,-1.55 -4.64,-3.13 -6.73,-4.53 v -4.54 c -1.46,-0.7 -3.05,-1.42 -4.73,-2.44 -0.69,-2.29 -1.4,-4.38 -2.26,-6.47 h -2.2 v -4.53 c -2.36,-1.57 -4.45,-2.95 -6.81,-4.75 v -4.34 c -1.39,-0.73 -2.85,-1.41 -4.44,-2.29 v -4.34 c -1.39,-0.89 -2.86,-1.58 -4.29,-2.28 -0.85,-2.27 -1.83,-4.53 -2.53,-6.62 h -2.09 c -0.94,-3.3 -1.47,-6.09 -2.2,-9.45 -1.71,-0.5 -3.21,-1.21 -4.6,-2.09 v -4.51 c -1.49,-0.75 -3.08,-1.59 -4.64,-2.28 v -4.38 c -1.27,-1.08 -2.88,-1.57 -4.35,-2.29 -0.7,-3.12 -1.39,-6.09 -2.45,-9.08 -1.32,-0.7 -2.87,-1.36 -4.29,-2.09 -0.77,-3.13 -1.66,-6.09 -2.14,-9.08 -1.77,-0.85 -3.07,-1.57 -4.67,-2.26 -0.69,-2.95 -1.48,-6.12 -2.19,-9.09 -1.55,-0.68 -3.01,-1.38 -4.44,-2.23 -0.88,-3.18 -1.55,-5.98 -2.34,-8.75 l -4.47,-2.46 v -4.35 l -4.62,-4.73 v -4.71 h -2.37 v -4.21 c -1.2,-0.69 -2.79,-1.53 -4.47,-2.41 v -4.38 l -4.42,-4.56 v -4.35 h -2.35 c -0.72,-3.14 -1.41,-6.11 -2.12,-9.24 -1.65,-0.71 -2.87,-1.4 -4.46,-2.28 v -4.34 l -4.52,-4.55 v -4.57 h -2.11 v -4.38 h -2.35 v -4.51 h -2.34 v -4.38 h -2.1 v -4.52 h -2.38 v -4.7 h -2.25 v -4.4 h -2.18 v -4.53 h -2.55 v -6.79 h -2.09 v -4.38 h -2.2 v -4.57 h -2.28 c -1.61,-4.51 -2.86,-8.9 -4.5,-13.59 h -2.09 v -6.81 h -2.38 c -0.69,-2.96 -1.55,-6.1 -2.24,-8.9 h -2.21 v -6.82 h -2.36 c -0.85,-2.96 -1.38,-6.12 -2.08,-8.92 h -2.19 v -6.98 h -2.45 v -4.54 h -2.18 c -0.87,-3.49 -1.38,-7.33 -2.35,-10.99 h -2.29 c -0.7,-4.54 -1.48,-8.93 -2.17,-13.61 h -2.3 v -4.36 h -2.34 c -1.38,-6.84 -2.87,-13.63 -4.27,-20.27 h -2.37 v -4.53 h -2.24 c -1.49,-6.86 -2.89,-13.83 -4.37,-20.45 h -2.42 v -6.62 h -2.19 v -6.65 h -2.12 v -6.79 h -2.35 c -1.58,-7.53 -3.08,-15.04 -4.63,-22.54 h -2.36 v -6.81 h -2.18 v -8.92 c -8.39,-23.56 -14.4,-52.19 -22.37,-76.65 -8.9,-47.31 -18.13,-94.66 -27.16,-141.97 -1.36,-16.44 -2.88,-32.98 -4.24,-49.41 -7.53,-24.6 -4.09,-58.49 -11.3,-83.64 v -28.98 h -2.34 v -33.7 h -2.45 v -40.69 c 0,0 -2.34,0.54 -2.19,-4.54 0.89,-1.4 1.48,-2.98 2.19,-4.54 h -2.19 v -62.87 c -5.66,-19.73 -3.05,-90.8 0,-103.72 v -24.82 c 0,-16.57 0.2,-32.62 2.19,-40.51 3.06,-10.81 -1.13,-24.64 2.45,-33.69 v -2.45 h -2.45 v -2.08 h 2.45 v -31.6 h 2.34 v -27.07 h 2.22 v -20.12 h 2.24 v -22.66 h 2.21 v -15.71 h 2.08 v -20.27 c 6.64,-22 7.16,-50.29 13.63,-72.12 v -13.43 c 5.33,-16.94 8,-39.66 13.63,-56.44 v -11.16 h 2.1 v -9.08 h 2.52 v -8.89 h 2.07 v -9.27 h 2.19 c 0.72,-6.46 1.42,-13.26 2.34,-19.89 h 2.13 v -6.82 h 2.34 v -9.08 h 2.39 v -9.07 h 2.04 c 0.74,-5.24 1.68,-10.48 2.21,-15.73 h 2.26 l 2.38,-15.89 h 2.09 v -8.89 h 2.18 v -6.82 h 2.36 v -6.64 h 2.44 v -6.81 h 2.19 v -9.07 h 2.35 v -6.65 h 2.12 v -6.79 h 2.19 v -6.83 h 2.42 c 0.6,-4.36 1.48,-9.06 2.17,-13.61 h 2.2 v -4.38 h 2.24 c 1.68,-6.78 2.88,-13.44 4.47,-20.24 h 2.17 v -4.39 h 2.34 l 2.3,-13.62 h 2.17 v -4.53 h 2.29 v -6.79 h 2.35 v -4.39 h 2.18 c 0.67,-3.84 1.57,-7.48 2.45,-11.35 h 2.19 v -6.79 h 2.08 v -4.38 h 2.36 v -6.81 h 2.21 l 2.24,-8.9 h 2.38 v -6.81 h 2.09 c 0.79,-3.14 1.64,-5.92 2.18,-9.26 h 2.32 v -4.35 h 2.28 v -4.56 h 2.2 v -6.8 h 2.09 c 1.85,-4.39 3.21,-8.92 4.73,-13.26 h 2.25 v -4.73 h 2.38 v -4.54 h 2.1 v -4.35 h 2.34 v -4.55 h 2.35 l 2.11,-8.91 h 2.18 v -4.53 h 2.34 v -4.54 h 2.27 v -4.55 h 2.19 v -4.55 h 2.12 v -4.35 h 2.35 c 0.86,-3.18 1.55,-6.14 2.33,-9.12 1.42,-0.49 3.17,-1.53 4.46,-2.22 v -4.38 l 4.47,-4.54 v -4.35 h 2.51 v -4.72 c 1.26,-0.71 2.83,-1.41 4.29,-2.26 1.59,-4.57 3.08,-9.11 4.63,-13.45 1.43,-0.71 2.89,-1.59 4.44,-2.29 l 2.19,-9.08 c 1.6,-0.87 2.9,-1.4 4.67,-2.25 0.48,-3 1.37,-5.94 2.14,-8.91 1.42,-0.71 2.97,-1.41 4.29,-2.45 1.06,-2.97 1.75,-5.94 2.45,-8.91 1.47,-0.71 3.08,-1.56 4.35,-2.26 v -4.55 c 1.56,-0.7 3.15,-1.59 4.64,-2.09 v -4.54 c 1.39,-0.89 2.89,-1.59 4.6,-2.28 v -4.35 c 1.26,-1.06 2.89,-1.75 4.29,-2.63 v -4.36 c 1.68,-0.53 3.07,-1.41 4.63,-2.28 v -4.38 c 1.47,-0.72 2.89,-1.75 4.54,-2.41 v -4.38 c 1.58,-0.69 2.79,-1.4 4.45,-2.28 v -4.37 h 2.09 c 1.14,-2.25 1.68,-4.72 2.36,-6.8 1.67,-0.86 3.06,-1.57 4.46,-2.27 v -4.53 c 2.52,-1.4 4.73,-2.98 6.82,-4.55 v -4.53 c 1.66,-0.7 3.05,-1.39 4.64,-2.1 v -4.73 c 1.29,-0.53 2.88,-1.38 4.52,-2.09 0.71,-2.25 1.57,-4.55 2.09,-6.62 2.36,-1.58 4.63,-3.32 6.83,-4.55 v -4.54 c 3.03,-2.44 6.11,-4.71 8.91,-6.82 v -4.54 c 2.18,-1.55 4.5,-2.97 6.97,-4.54 v -4.35 c 2.89,-2.28 5.76,-4.53 8.83,-6.82 v -4.54 c 3.92,-2.99 7.46,-6.11 11.23,-9.07 v -4.57 c 3.79,-2.96 7.68,-5.94 11.28,-9.07 v -4.35 c 6.02,-5.05 11.97,-10.49 17.98,-15.54 14.64,-20.43 32.05,-36.69 49.61,-54.33 6.04,-6.8 12.13,-13.25 18.06,-20.06 h 4.48 c 8.37,-9.27 16.56,-18.15 24.6,-27.06 h 4.73 c 4.6,-5.43 8.89,-10.49 13.49,-15.92 h 4.57 c 3.76,-4.52 7.49,-8.89 11.07,-13.42 h 4.82 c 2.86,-3.84 5.84,-7.52 8.89,-11.16 h 4.46 c 2.2,-3.16 4.36,-5.96 6.84,-9.11 h 4.26 c 1.65,-2.42 3.23,-4.52 4.73,-6.98 h 4.25 c 2.28,-2.8 4.62,-5.75 7,-8.89 2.26,-0.7 4.48,-1.41 6.57,-2.1 l 2.52,-4.54 h 4.28 c 0.67,-1.59 1.46,-3.14 2.33,-4.55 h 4.46 c 1.4,-2.27 3.25,-4.52 4.43,-6.62 2.2,-0.9 4.47,-1.58 6.84,-2.45 0.7,-1.39 1.4,-2.98 2.35,-4.57 h 4.45 l 2.37,-4.5 c 2.1,-0.71 4.44,-1.23 6.58,-2.11 v -2.28 h 4.67 c 1.41,-2.45 2.8,-4.52 4.3,-6.8 3.22,-0.52 6,-1.38 8.89,-2.27 1.07,-1.59 1.84,-2.8 2.33,-4.39 h 4.66 l 2.34,-4.54 h 4.29 c 0.69,-1.55 1.56,-3.14 2.44,-4.52 h 4.37 c 0.71,-1.57 1.73,-2.96 2.26,-4.55 2.9,-0.69 5.94,-1.39 8.99,-2.25 0.89,-1.4 1.59,-2.98 2.11,-4.55 2.35,-0.71 4.62,-1.39 6.81,-2.08 v -2.28 c 3.25,-0.87 6.09,-1.56 9.07,-2.28 0.79,-1.56 1.49,-2.99 2.38,-4.54 4.44,-1.57 8.89,-2.96 13.45,-4.52 0.68,-1.4 1.57,-2.99 2.23,-4.57 l 13.65,-4.35 c 0.7,-1.56 1.21,-3.14 2.18,-4.55 2.79,-0.87 5.87,-1.39 8.9,-2.27 v -2.25 h 4.62 v -2.28 h 4.45 l 4.38,-4.54 h 4.61 l 2.12,-4.54 c 4.72,-1.4 9.17,-2.8 13.61,-4.35 v -2.29 h 4.62 v -2.1 h 4.27 v -2.27 h 4.73 v -2.43 h 4.45 v -2.1 h 6.66 v -2.46 h 4.6 v -2.26 h 4.62 v -2.26 c 4.29,-1.38 8.98,-2.8 13.44,-4.55 v -2.11 h 6.83 v -2.25 h 4.29 v -2.09 h 4.62 v -2.44 h 4.47 v -2.29 h 6.81 v -2.09 h 4.43 v -2.45 h 6.82 v -2.09 c 2.84,-0.87 6.1,-1.57 8.89,-2.26 v -2.29 h 6.66 v -2.25 h 4.78 v -2.12 h 6.65 v -2.41 h 4.45 v -2.11 l 13.43,-2.46 v -2.25 h 4.64 v -2.28 c 6.83,-1.38 13.64,-2.77 20.43,-4.35 v -2.46 h 6.64 v -2.1 h 6.72 v -2.27 h 6.67 v -2.1 h 6.75 v -2.44 h 6.83 v -2.09 h 6.82 v -2.28 l 13.34,-2.27 v -2.26 h 9.16 v -2.44 h 6.76 v -2.1 h 8.98 v -2.27 h 6.8 v -2.25 l 15.9,-2.29 v -2.28 h 8.89 v -2.11 c 5.94,-0.85 12.08,-1.55 17.9,-2.24 v -2.45 c 5.93,-0.7 11.97,-1.39 18.11,-2.09 v -2.29 c 38.96,-7.49 78.12,-15.01 117.08,-22.5 h 15.77 c 13.88,-4.38 35.02,-4.73 49.51,-9.11 h 22.52 v -2.25 c 7.87,-2.1 16.42,0.35 22.54,-2.1 1.65,0.53 2.88,1.38 4.44,2.1 v -2.1 c 8.03,-2.08 16.32,0.35 22.51,-2.27 h 2.38 c 3.07,0.69 -0.7,2.96 2.18,2.27 v -2.27 h 29.23 v -2.29 h 2.39 v 2.29 h 2.37 c 11.58,-3.31 33.05,1.22 44.88,-2.29 11.02,-3.28 30.34,-2.25 45.04,-2.25 26.6,0 62.95,-4.2 85.47,2.25 h 51.86 v 2.29 h 31.62 v 2.27 h 26.94 v 2.1 h 22.54 v 2.25 h 20.46 v 2.28 h 17.88 c 13.87,4.03 33.79,4.89 47.31,8.92 h 13.62 v 2.44 h 15.55 v 2.24 h 11.27 v 2.31 h 11.46 v 2.25 h 13.41 c 35.6,11.17 76.3,16.96 110.37,29.17 h 8.91 v 2.27 h 6.8 v 2.1 h 9.08 v 2.44 l 13.47,2.26 v 2.27 h 6.62 v 2.28 h 6.72 v 2.09 h 6.98 v 2.44 h 6.64 v 2.1 h 6.79 v 2.27 h 6.84 v 2.1 c 6.61,1.74 13.51,3.33 20.17,4.54 v 2.27 h 4.45 v 2.28 c 4.52,0.85 9.14,1.55 13.41,2.25 v 2.46 h 4.66 v 2.11 h 6.8 v 2.41 h 4.63 v 2.12 h 6.64 v 2.25 h 4.46 v 2.29 h 6.81 v 2.26 h 4.46 v 2.09 h 6.79 v 2.45 h 4.43 v 2.09 c 3.77,0.71 7.53,1.59 11.27,2.29 v 2.44 h 4.57 v 2.09 l 13.32,4.36 v 2.46 h 6.98 v 2.09 h 4.47 v 2.26 c 2.88,0.86 6.09,1.57 8.97,2.26 v 2.46 h 4.47 v 2.1 h 4.47 v 2.43 h 4.45 v 2.27 h 4.64 v 2.1 h 4.56 v 2.29 h 4.6 v 2.25 h 4.47 v 2.1 h 4.42 l 4.57,4.54 h 4.27 c 0.84,1.58 1.73,3.14 2.43,4.54 h 4.28 l 4.71,4.53 h 4.63 v 2.27 h 4.31 v 2.46 h 4.61 c 0.79,1.23 1.49,2.8 2.18,4.36 l 13.41,4.55 2.29,4.36 c 3.22,0.69 6.11,1.73 9.17,2.26 0.72,1.55 1.39,2.98 2.28,4.54 2.88,0.72 5.96,1.41 8.98,2.28 l 2.27,4.36 c 2.2,0.87 4.29,1.57 6.66,2.25 v 2.3 c 2.89,0.86 5.91,1.56 8.9,2.25 v 2.29 c 2.35,0.69 4.53,1.56 6.79,2.26 l 2.38,4.52 h 4.61 c 0.53,1.25 1.21,2.99 2.18,4.54 h 4.46 l 2.39,4.39 h 4.25 c 0.86,1.75 1.75,2.97 2.27,4.55 h 4.51 v 2.07 c 2.3,0.89 4.47,1.77 6.57,2.45 0.97,1.59 1.84,3.16 2.5,4.39 h 4.48 c 1.67,2.42 3.07,4.5 4.64,6.79 h 4.53 c 0.69,1.57 1.4,3.15 2.1,4.73 h 4.46 l 2.38,4.35 c 2.14,0.7 4.24,1.59 6.6,2.27 1.58,2.27 3.06,4.55 4.43,6.8 h 4.47 c 1.67,2.29 3.07,4.39 4.92,6.64 2.09,0.89 4.25,1.58 6.54,2.27 0.69,1.57 1.64,3.15 2.35,4.37 h 4.44 l 2.19,4.56 h 2.28 l 2.17,4.68 h 4.43 c 2.22,2.97 4.67,5.79 6.85,9.09 h 4.61 c 1.49,2.11 2.89,4.38 4.47,6.65 h 2.36 c 0.67,1.57 1.41,2.96 2.15,4.36 h 4.67 l 13.17,15.91 c 25.05,17.96 44.17,39.62 65.31,60.73 21.46,21.31 42.86,40.52 60.95,65.34 4.68,3.84 8.88,7.48 13.61,11.36 v 4.32 c 3.65,3.17 7.53,6.15 11.01,9.27 v 4.37 c 1.75,0.7 3.3,1.57 4.51,2.26 v 2.28 c 1.59,0.68 3.17,1.4 4.89,2.29 v 4.53 c 2.79,2.1 5.96,4.35 8.94,6.63 v 4.36 c 2.06,1.72 4.35,3.33 6.61,4.55 v 4.71 c 2.08,1.4 4.38,2.97 6.82,4.54 v 4.55 c 2.09,1.39 4.19,2.77 6.64,4.37 0.7,2.25 1.58,4.34 2.26,6.63 1.41,0.86 2.97,1.55 4.72,2.44 v 4.36 c 1.4,0.89 2.78,1.4 4.35,2.27 v 4.55 c 2.31,1.39 4.35,2.96 6.66,4.53 v 4.35 c 1.55,0.9 2.96,1.41 4.68,2.47 0.73,2.25 1.42,4.37 2.08,6.62 h 2.13 v 4.56 c 1.73,0.52 3.15,1.55 4.73,2.1 0.69,2.41 1.39,4.5 2.09,6.79 h 2.25 v 4.54 c 1.76,0.88 3.15,1.39 4.55,2.1 v 4.89 c 1.58,0.53 3.11,1.21 4.53,2.09 v 4.53 c 1.57,0.7 2.98,1.57 4.55,2.29 0.69,2.8 1.39,5.93 2.44,8.9 1.42,0.87 2.81,1.38 4.39,2.29 v 4.52 c 1.54,0.7 2.94,1.38 4.53,2.1 v 4.54 h 2.27 v 4.72 c 1.4,0.69 3.12,1.4 4.2,2.1 1.02,2.95 1.72,5.93 2.41,9.06 1.59,0.72 3.15,1.42 4.56,2.27 1.41,4.54 3.15,8.91 4.55,13.27 1.36,1.06 2.79,1.59 4.54,2.47 v 4.34 l 4.56,4.73 v 4.35 h 2.1 v 4.55 c 1.53,0.7 2.92,1.55 4.51,2.28 v 4.53 l 4.51,4.53 v 4.37 h 2.11 v 4.53 h 2.45 v 4.57 h 2.11 v 4.52 h 2.27 v 4.56 h 2.25 v 4.51 h 2.11 v 4.56 h 2.62 v 4.18 h 2.26 v 4.55 h 2.09 v 4.7 h 2.27 c 0.73,2.99 1.39,5.78 2.29,9.08 h 2.08 l 2.45,8.92 h 2.09 v 4.54 h 2.45 v 6.64 h 2.09 v 4.53 h 2.28 l 2.28,9.08 h 2.1 v 6.6 h 2.42 c 0.7,3.18 1.38,6.16 2.1,9.11 h 2.09 v 6.66 h 2.47 c 0.88,3.12 1.56,6.09 2.41,9.07 h 2.11 v 6.81 h 2.46 v 4.54 h 2.1 c 0.69,3.66 1.36,7.5 2.43,11.35 h 2.07 v 6.45 h 2.28 v 4.56 h 2.1 c 0.89,4.51 1.59,9.07 2.29,13.59 h 2.47 v 4.56 h 2.04 v 6.63 h 2.1 v 6.81 h 2.46 v 6.64 h 2.28 v 6.82 h 2.24 v 6.98 h 2.12 v 6.62 h 2.25 v 6.81 h 2.29 v 6.82 h 2.44 v 6.62 h 2.26 v 6.99 h 2.09 c 0.88,4.37 1.59,8.92 2.28,13.27 h 2.28 v 9.07 h 2.27 v 6.66 h 2.44 v 6.81 h 2.09 c 0.7,5.22 1.59,10.44 2.1,15.89 h 2.46 l 2.1,17.81 h 2.24 c 0.88,6.09 1.42,12.2 2.12,18.14 h 2.26 v 6.64 h 2.46 c 10.45,53.26 20.95,106.71 31.4,159.96 0.88,11.34 1.59,22.71 2.44,33.71 6.99,22.49 4.37,53.61 11.2,76.65 v 22.54 h 2.25 v 29.32 h 2.28 v 33.89 h 2.25 c -0.49,2.97 -2.94,39.81 0,49.39 3.51,11.71 2.31,31.99 2.31,47.35 z m -608.12,-40.51 h -2.38 v -81.2 h -2.26 c -1.3,-5.22 2.8,-6.11 2.26,-8.91 h -2.26 v -35.96 h -2.18 v -29.52 h -2.35 v -24.62 h -2.28 v -22.69 c -5.94,-20.95 -5.06,-48.92 -11.08,-69.68 v -13.65 c -4.47,-14.81 -6.82,-34.74 -11.26,-49.37 v -11.36 h -2.19 c -1.56,-9.61 -3.04,-19.55 -4.81,-29.16 h -2.17 c -1.25,-9.09 -2.8,-18.01 -4.47,-27.08 h -2.29 c -0.58,-5.94 -1.26,-12.03 -2.14,-18.17 h -2.38 c -0.69,-5.22 -1.39,-10.46 -2.1,-15.55 h -2.16 v -6.78 h -2.31 v -6.82 h -2.32 v -6.81 h -2.18 c -0.89,-5.07 -1.59,-10.46 -2.1,-15.7 h -2.51 v -4.37 h -2.13 v -6.81 h -2.18 v -6.82 h -2.54 v -6.81 h -2.09 v -6.64 h -2.36 v -4.55 h -2.35 v -6.78 h -2.09 v -4.38 h -2.19 v -6.98 h -2.43 v -4.54 h -2.22 v -6.63 h -2.05 v -4.38 h -2.39 v -6.8 h -2.18 v -4.55 h -2.28 v -4.37 h -2.14 v -4.7 h -2.37 v -6.82 h -2.1 c -1.68,-4.38 -3.05,-8.89 -4.6,-13.45 h -2.38 v -4.35 h -2.18 v -4.55 h -2.3 v -4.37 h -2.34 v -4.7 h -2.09 v -4.54 l -4.54,-4.37 v -4.55 c -1.56,-0.88 -2.8,-1.58 -4.66,-2.27 v -4.52 l -4.24,-4.37 v -4.54 h -2.37 v -4.55 c -1.58,-0.88 -2.98,-1.57 -4.46,-2.43 -0.89,-2.98 -1.38,-5.94 -2.06,-8.93 -1.86,-0.69 -3.25,-1.39 -4.93,-2.28 l -2.05,-9.06 c -1.52,-0.7 -3.07,-1.38 -4.47,-2.1 -0.82,-2.26 -1.48,-4.53 -2.19,-6.8 h -2.53 c -0.55,-2.99 -1.4,-6.11 -2.1,-9.08 -1.52,-0.7 -2.89,-1.4 -4.44,-2.29 v -4.51 c -2.39,-1.24 -4.57,-2.82 -6.64,-4.56 v -4.36 c -1.67,-0.69 -3.24,-1.39 -4.44,-2.09 v -4.72 c -2.38,-1.4 -4.76,-2.97 -6.85,-4.54 v -4.21 c -1.65,-0.84 -3.03,-1.54 -4.6,-2.42 v -4.55 c -2.9,-2.26 -5.77,-4.53 -8.99,-6.82 v -4.51 c -2.89,-2.1 -6.14,-4.39 -8.92,-6.66 v -4.34 c -3.94,-3.34 -7.69,-6.13 -11.3,-9.1 v -4.72 c -6.09,-5.23 -11.99,-10.29 -18.05,-15.55 v -4.7 c -8.18,-7.51 -16.66,-14.85 -25.05,-22.53 -6.6,-7.32 -13.36,-15.01 -20.15,-22.34 h -4.28 c -5.44,-6.11 -10.57,-12.06 -15.97,-17.99 h -4.47 c -2.89,-3.85 -6.11,-7.5 -8.9,-11.34 h -4.56 c -2.26,-2.8 -4.44,-6.13 -6.7,-8.92 h -4.38 c -1.72,-2.26 -3.14,-4.35 -4.79,-6.99 h -4.45 c -1.42,-2.08 -2.89,-4.34 -4.45,-6.81 h -4.46 c -1.68,-2.1 -2.89,-4.36 -4.73,-6.64 h -4.27 c -0.71,-1.56 -1.57,-2.79 -2.09,-4.34 h -4.73 c -1.4,-2.29 -3.14,-4.56 -4.43,-6.83 h -4.63 l -2.36,-4.54 h -4.29 c -0.68,-1.4 -1.38,-2.95 -2.54,-4.35 -2.77,-0.9 -5.67,-1.75 -8.72,-2.45 l -2.38,-4.36 c -2.25,-0.71 -4.44,-1.41 -6.54,-2.45 v -2.1 h -4.69 l -4.45,-4.52 h -4.64 c -0.52,-1.42 -1.23,-3 -2.18,-4.55 l -13.33,-4.55 -2.38,-4.38 h -4.47 l -4.44,-4.53 h -4.64 v -2.09 h -4.54 v -2.26 h -4.62 v -2.63 h -4.28 v -2.1 h -4.44 v -2.26 l -13.64,-4.57 v -2.09 h -6.79 v -2.41 h -4.47 v -2.1 h -6.8 v -2.28 c -3.07,-0.69 -6,-1.4 -8.9,-2.28 v -2.25 h -6.65 v -2.12 h -4.64 v -2.25 h -6.76 v -2.47 h -6.84 v -2.08 h -6.8 v -2.27 h -6.57 v -2.27 h -4.7 v -2.26 h -8.91 v -2.29 h -6.82 v -2.26 h -6.8 V 1658 l -15.55,-2.26 v -2.1 h -9.08 v -2.44 c -5.92,-0.7 -12.06,-1.4 -18.07,-2.29 v -2.09 c -6.83,-0.52 -13.25,-1.75 -20.27,-2.25 v -2.3 h -11.24 c -17.63,-5.79 -42.37,-5.92 -60.59,-11.16 h -22.73 v -2.44 h -31.4 c -16.52,-4.54 -82.69,-4.38 -99.29,0 h -31.26 v 2.44 h -22.6 v 2.27 h -18.16 v 2.27 h -15.81 c -14.27,4.19 -33.25,6.81 -47.12,11.17 h -11.46 c -27.77,8.22 -55.44,16.6 -83.37,24.8 v 2.08 h -4.3 v 2.47 l -13.61,2.25 v 2.12 h -4.44 v 2.25 h -6.98 v 2.28 c -2.79,0.69 -5.88,1.58 -8.76,2.28 v 2.1 h -6.8 v 2.41 h -4.62 v 2.09 l -13.28,4.57 v 2.26 c -6.88,2.1 -13.54,4.73 -20.31,6.99 -0.76,1.21 -1.64,2.78 -2.38,4.37 h -4.46 l -4.45,4.54 h -4.63 v 2.09 h -4.57 v 2.45 h -4.42 l -2.28,4.36 c -4.52,1.38 -9,2.97 -13.41,4.56 -0.74,1.38 -1.43,2.95 -2.22,4.35 -3.14,1.04 -6.02,1.74 -9.07,2.45 l -2.18,4.36 h -4.64 c -0.69,1.55 -1.4,3.14 -2.25,4.55 h -4.35 c -0.9,1.38 -1.59,2.95 -2.48,4.69 h -4.27 c -0.77,1.24 -1.66,2.79 -2.34,4.37 h -4.47 c -0.69,1.42 -1.67,2.97 -2.37,4.56 h -4.26 l -2.54,4.34 h -4.47 c -0.69,1.75 -1.21,2.98 -2.1,4.54 -2.37,0.89 -4.7,1.58 -6.79,2.1 -1.48,2.47 -3.04,4.73 -4.46,6.81 h -4.71 c -0.71,1.55 -1.4,3.33 -2.1,4.73 -2.19,0.7 -4.51,1.39 -6.79,2.26 -2.19,2.79 -4.48,6.12 -6.66,8.92 h -4.8 c -2.88,3.84 -5.77,7.49 -8.97,11.34 h -4.29 l -13.36,15.71 h -4.71 c -9.07,9.61 -17.98,19.56 -26.97,29.16 -9.79,9.07 -19.48,17.99 -29.36,27.08 v 4.53 c -5.13,4.54 -10.56,9.08 -15.69,13.61 v 4.55 c -3.77,2.79 -7.51,5.93 -11.28,8.9 v 4.39 c -3.06,2.42 -5.94,4.51 -9.08,6.8 v 4.53 c -2.17,1.4 -4.35,2.96 -6.82,4.55 v 4.54 c -2.17,1.38 -4.26,2.79 -6.6,4.52 l -2.39,6.83 c -1.38,0.7 -2.79,1.4 -4.42,2.09 v 4.36 c -1.42,1.05 -3.08,1.74 -4.47,2.43 v 4.39 c -1.4,0.87 -3.07,1.75 -4.62,2.25 -0.73,2.29 -1.33,4.56 -2.2,6.98 h -2.09 v 4.39 c -1.65,0.69 -3.06,1.39 -4.72,2.27 v 4.53 c -1.39,0.72 -2.8,1.4 -4.46,2.1 -0.69,2.97 -1.55,6.09 -2.11,9.06 -1.63,0.89 -3.03,1.59 -4.69,2.28 -0.72,2.99 -1.41,5.95 -2.08,8.93 -1.47,0.86 -3.08,1.55 -4.45,2.43 -0.98,2.98 -1.68,5.94 -2.38,9.09 -1.39,0.69 -3.05,1.39 -4.6,2.08 v 4.54 l -4.56,4.54 v 4.55 h -2.1 v 4.37 h -2.33 v 4.54 c -1.42,0.87 -2.89,1.39 -4.31,2.26 -0.67,3.13 -1.74,5.93 -2.54,8.91 h -2.08 v 4.54 h -2.19 c -1.73,4.54 -3.21,8.92 -4.62,13.41 h -2.18 v 6.84 h -2.26 v 4.55 h -2.2 c -1.57,4.51 -3.08,9.07 -4.81,13.43 h -2.16 v 6.81 h -2.12 c -0.67,3.14 -1.47,6.1 -2.14,8.92 h -2.47 v 6.99 h -2.18 v 4.53 h -2.2 c -0.88,3.5 -1.56,7.34 -2.23,11.16 h -2.22 v 6.64 h -2.25 v 4.55 h -2.37 v 6.81 h -2.19 v 6.82 h -2.1 v 6.81 h -2.51 v 6.63 h -2.1 v 6.63 h -2.18 v 6.81 h -2.57 v 6.81 h -2.09 v 6.82 h -2.33 v 6.78 h -2.09 v 6.67 h -2.38 c -0.7,5.4 -1.4,10.47 -2.19,15.71 h -2.23 c -1.68,8.2 -2.88,16.59 -4.56,24.79 h -2.1 v 11.15 h -2.35 v 9.29 h -2.28 v 8.9 h -2.16 v 8.91 h -2.38 v 11.32 h -2.09 v 11.37 h -2.35 v 11.17 h -2.31 v 11.17 h -2.32 v 13.65 c -5.33,17.97 -5.78,42.25 -11.08,60.75 v 17.99 h -2.38 v 18.01 h -2.1 v 24.94 h -2.35 v 26.91 h -2.26 v 29.33 h -2.19 c 0.53,2.98 2.52,53.95 0,63.04 -6.81,23.21 -2.69,97.78 0,114.72 2.36,15.39 -0.52,34.75 2.19,47.33 -0.78,2.43 -1.48,4.68 -2.19,6.8 h 2.19 v 29.35 h 2.26 v 27.04 h 2.35 v 22.54 h 2.1 v 22.49 h 2.38 v 17.84 h 2.16 c 0.89,11.37 1.59,22.71 2.11,34.06 h 2.35 c 0.87,8.73 1.56,17.8 2.27,27.07 6.47,20.76 9.36,47.12 15.8,67.39 v 11.16 h 2.28 v 9.11 h 2.35 v 9.08 h 2.1 v 9.08 h 2.18 v 8.88 h 2.38 v 6.8 h 2.23 c 0.79,6.15 1.49,12.25 2.19,17.83 h 2.38 v 6.99 h 2.09 v 6.62 h 2.33 v 6.84 h 2.09 v 8.91 h 2.57 v 6.63 h 2.18 v 6.98 h 2.1 v 6.79 h 2.51 v 4.54 h 2.1 c 0.79,4.35 1.29,8.94 2.19,13.29 h 2.37 v 4.53 h 2.25 c 0.55,4.56 1.47,9.07 2.22,13.64 h 2.23 v 4.35 h 2.2 v 6.81 h 2.18 c 0.86,2.97 1.53,6.1 2.47,8.92 h 2.14 v 6.79 h 2.12 c 0.95,3.14 1.65,5.94 2.16,9.25 h 2.56 v 6.83 h 2.25 c 1.31,4.19 3.06,8.9 4.46,13.28 h 2.18 v 4.52 h 2.35 v 4.51 h 2.27 v 4.57 h 2.19 v 4.56 h 2.08 v 4.37 h 2.54 v 4.52 h 2.19 v 4.55 l 4.45,4.35 v 4.56 c 1.58,0.85 3.07,1.53 4.45,2.29 1.42,4.69 3.22,9.01 4.44,13.58 1.68,0.71 3.07,1.41 4.75,2.29 1.37,4.53 2.98,8.89 4.45,13.42 h 2.08 c 0.69,2.09 1.66,4.54 2.37,6.82 1.58,0.7 2.88,1.39 4.43,2.09 0.68,3.14 1.66,6.14 2.35,9.09 h 2.11 c 0.79,2.42 1.66,4.51 2.37,6.81 1.4,0.68 3.04,1.56 4.44,2.26 v 4.55 c 2.2,1.39 4.31,2.98 6.82,4.36 v 4.36 c 1.39,1.07 3.05,1.77 4.47,2.45 v 4.4 c 2.33,1.71 4.42,3.3 6.81,4.67 v 4.56 c 2.34,1.4 4.43,2.78 6.6,4.36 v 4.51 c 2.47,1.63 4.65,2.98 6.82,4.41 v 4.68 c 3.14,2.12 6.02,4.55 9.08,6.64 v 4.39 c 4.3,4 9.08,7.86 13.42,11.49 v 4.57 c 1.59,0.69 2.99,1.38 4.66,2.28 3.76,4.52 7.3,8.89 11.27,13.42 6.28,6.31 15.36,10.12 18.06,20.09 11.45,3.3 17.3,15.05 24.63,22.54 3.02,2.46 5.91,4.7 9.17,6.79 v 2.45 h 4.25 c 3.77,4.35 7.53,8.91 11.3,13.29 h 4.61 c 2.19,3.31 4.29,6.11 6.81,9.07 h 4.27 c 2.18,3.15 4.63,6.11 6.98,9.24 h 4.47 c 1.49,2.1 2.89,4.56 4.47,6.63 2.32,0.7 4.51,1.4 6.61,2.11 0.71,1.39 1.84,3.13 2.37,4.57 h 4.45 c 0.87,1.55 1.38,2.97 2.35,4.5 h 4.42 l 2.37,4.56 c 2.1,0.89 4.47,1.4 6.57,2.26 v 2.26 h 4.71 c 0.69,1.58 1.21,2.99 2.09,4.38 h 4.63 l 2.21,4.7 h 4.42 c 0.69,1.39 1.68,2.98 2.19,4.37 3.26,0.71 6.03,1.57 9.08,2.45 l 2.38,4.35 h 4.44 v 2.29 h 4.45 c 0.7,1.58 1.48,2.8 2.34,4.38 h 4.5 l 4.41,4.52 h 4.48 v 2.27 h 4.52 c 0.89,1.59 1.58,2.97 2.28,4.51 4.42,1.61 8.99,2.99 13.62,4.4 v 2.63 h 4.45 v 2.09 l 13.61,4.53 v 2.28 h 6.66 v 2.08 h 4.45 v 2.26 c 3.2,0.88 6,1.56 9.07,2.29 v 2.26 h 6.64 v 2.08 c 3.04,0.76 6.09,1.8 9.07,2.48 v 2.27 c 4.55,0.69 9.02,1.39 13.62,2.06 v 2.47 h 4.47 v 2.09 c 6.8,1.59 13.42,2.98 20.26,4.38 v 2.44 h 4.45 v 2.25 h 9.09 v 2.29 h 6.8 v 2.27 h 6.79 v 2.26 h 6.63 v 2.26 c 8.22,1.22 16.6,2.99 24.81,4.58 v 2.05 h 9 v 2.12 h 11.26 c 18.09,5.92 41.64,8.2 60.78,13.63 h 15.68 v 2.44 h 18.12 v 2.23 h 24.85 v 2.1 h 31.43 c 18.59,5.45 49.43,2.31 72.12,2.31 h 31.46 v -2.31 c 3.38,0 -0.89,2.12 2.34,2.31 4.64,0.34 4.26,-2.31 4.26,-2.31 h 29.33 v -2.1 h 22.73 v -2.23 h 17.87 v -2.44 h 15.91 v -2.31 h 13.44 v -2.23 H 5198 v -2.29 h 11.6 v -2.28 c 7.31,-0.51 14.82,-1.21 22.33,-2.09 30.82,-8.89 61.56,-17.97 92.46,-27.24 v -2.09 h 4.29 v -2.09 l 13.61,-2.47 v -2.06 h 4.45 v -2.27 h 6.98 v -2.48 c 2.88,-0.66 5.77,-1.38 8.95,-2.08 v -2.26 h 6.6 v -2.29 h 4.47 v -2.26 c 3.03,-0.68 6.09,-1.59 9.12,-2.08 v -2.28 h 4.3 v -2.27 h 4.64 v -2.26 h 4.61 v -2.09 h 4.39 v -2.63 h 4.65 v -2.3 h 4.24 v -2.1 h 4.64 v -2.42 h 4.45 l 4.54,-4.36 h 4.63 c 0.69,-1.36 1.41,-2.99 2.1,-4.52 4.69,-1.58 8.98,-2.8 13.61,-4.38 0.51,-1.57 1.48,-3.17 2.19,-4.54 3.05,-0.87 6.01,-1.4 9.07,-2.1 0.71,-1.74 1.5,-3.33 2.2,-4.73 h 4.45 v -2.09 h 4.63 c 1.29,-2.41 3.03,-4.7 4.43,-6.79 h 4.73 c 0.52,-1.39 1.38,-3.14 2.09,-4.55 2.18,-0.86 4.27,-1.37 6.81,-2.26 v -2.27 h 4.29 l 2.36,-4.56 h 4.45 c 1.56,-2.23 3.22,-4.53 4.45,-6.8 h 4.79 c 1.3,-2.11 2.88,-4.18 4.38,-6.64 h 4.44 c 1.57,-2.1 2.88,-4.35 4.45,-6.98 h 4.45 c 2.39,-2.8 4.63,-5.56 6.82,-8.91 h 4.47 c 3.72,-4.52 7.66,-8.9 11.42,-13.46 h 4.55 c 6.7,-7.49 13.35,-14.99 20.16,-22.5 h 4.27 c 5.59,-6.12 10.73,-11.87 15.91,-17.98 3.03,-2.12 6.11,-4.35 9.14,-6.64 v -4.7 c 6.06,-5.08 11.96,-10.33 18.05,-15.72 v -2.1 c 1.27,-0.9 3,-1.59 4.48,-2.28 v -4.57 c 3.77,-3.12 7.49,-6.1 11.11,-8.9 v -4.69 c 3.05,-2.29 6.02,-4.38 9.09,-6.81 v -4.37 c 3.03,-2.43 6.1,-4.53 9.13,-6.84 v -4.51 c 1.22,-0.69 2.89,-1.58 4.47,-2.11 v -4.56 c 2.38,-1.52 4.43,-3.1 6.82,-4.35 v -4.88 c 1.37,-0.53 2.87,-1.22 4.25,-2.09 0.71,-2.45 1.59,-4.55 2.39,-6.81 h 2.25 v -4.36 c 1.51,-0.87 2.89,-1.57 4.29,-2.27 v -4.54 c 1.81,-0.87 3.24,-1.56 4.72,-2.3 0.86,-2.09 1.4,-4.51 2.06,-6.77 h 2.41 v -4.36 c 1.53,-0.89 3.02,-1.59 4.57,-2.47 0.55,-2.8 1.44,-5.93 2.41,-8.91 1.17,-0.69 2.8,-1.38 4.25,-2.25 1.39,-4.55 3.06,-8.89 4.64,-13.46 1.37,-0.83 2.88,-1.59 4.24,-2.09 0.89,-3.3 1.86,-6.1 2.37,-9.45 h 2.29 v -4.33 h 2.18 v -4.56 l 4.45,-4.35 v -4.55 c 1.66,-0.7 3.05,-1.59 4.64,-2.1 0.92,-3.87 1.46,-7.68 2.18,-11.35 h 2.38 c 0.67,-2.97 1.55,-6.1 2.23,-9.08 h 2.37 v -4.52 h 2.1 c 1.31,-4.38 3.05,-9.09 4.51,-13.28 h 2.28 v -6.83 h 2.18 c 0.91,-3.31 1.59,-6.11 2.39,-9.25 h 2.05 v -6.79 h 2.22 v -4.4 h 2.43 v -6.6 h 2.19 v -4.73 h 2.09 v -6.64 h 2.35 v -4.36 h 2.36 c 0.69,-4.71 1.41,-9.08 2.09,-13.8 h 2.54 v -4.55 h 2.18 c 0.71,-4.35 1.38,-8.9 2.13,-13.25 h 2.51 v -6.63 h 2.1 v -6.99 h 2.18 c 1.54,-7.35 3.04,-15.03 4.63,-22.36 h 2.16 v -9.08 h 2.1 v -6.81 h 2.38 v -9.07 c 10.54,-29.16 15.17,-65.85 24.86,-96.89 v -13.3 h 2.27 v -13.61 h 2.2 v -13.64 h 2.09 c 2.37,-23.21 4.73,-46.47 6.82,-69.65 h 2.17 v -22.37 h 2.28 v -24.98 h 2.35 v -31.58 h 2.18 c 3.94,-13.29 -2.02,-34.75 0,-42.79 4.27,-16.42 2.26,-42.62 2.26,-62.87 l 2.38,-22.73 h -2.38 c 0.98,-3.1 1.68,-5.9 2.38,-8.88 m 4585.41,794.86 h -2.2 l 2.2,2.48 v 2.09 h -2.2 v 29.32 h -2.1 v 15.71 h -2.5 v 20.29 h -2.1 v 15.87 h -2.5 v 13.61 c -5.9,18.85 -9.4,42.24 -15.7,60.59 v 9.07 h -2.3 c -0.6,5.27 -1.5,10.51 -2.2,15.71 h -2.5 v 6.64 h -2 v 6.8 h -2.1 v 6.98 h -2.2 v 6.66 h -2.5 c -0.7,4.39 -1.4,8.95 -2.2,13.62 h -2.2 v 4.4 h -2.1 c -1,4.5 -1.8,8.89 -2.6,13.6 h -2.3 c -0.7,2.79 -1.4,5.76 -2.1,8.91 h -2.2 v 6.8 h -2.2 v 4.4 h -2.6 c -1.3,4.51 -2.7,9.03 -4.2,13.76 h -2.4 v 6.44 h -2.1 v 4.57 h -2.3 v 4.71 l -4.4,2.1 v 4.53 l -4.5,4.36 v 4.54 h -2.4 v 4.38 h -2.1 v 4.72 l -4.6,2.26 c -0.7,2.95 -1.3,5.95 -2.4,8.89 -1.3,0.89 -2.8,1.77 -4.6,2.47 l -2,8.89 h -2.3 c -0.6,2.1 -1.4,4.53 -2.2,6.64 -1.5,0.89 -2.9,1.59 -4.5,2.25 v 4.73 l -4.7,2.26 v 4.4 c -2,1.37 -4.1,2.95 -6.6,4.52 v 4.53 c -1.4,0.72 -3,1.41 -4.6,2.1 v 4.72 l -4.5,2.09 c -0.7,2.1 -1.4,4.55 -2.3,6.64 -2.9,2.28 -5.7,4.71 -8.9,6.98 v 4.57 c -3.7,2.77 -7.4,5.91 -11.1,8.89 -9.6,13.46 -20.3,24.6 -31.8,36.13 -53.5,53.78 -119.4,97.25 -193.5,130.46 h -6.6 v 2.26 h -4.9 v 2.43 h -6.6 v 2.11 h -4.6 v 2.27 c -6.6,1.56 -13.3,3.14 -19.9,4.55 v 2.25 h -6.97 v 2.3 h -6.65 v 2.25 h -7.02 v 2.09 h -6.37 v 2.28 h -6.83 v 2.28 c -5.45,0.87 -10.9,1.55 -16.07,2.24 v 2.09 h -9.14 v 2.47 h -8.68 v 2.1 h -9.05 v 2.27 h -8.96 v 2.25 c -37.5,5.95 -75.08,12.07 -112.67,18.16 h -29.28 v 2.1 h -36.2 c -21.24,6.26 -86.72,3.68 -101.03,0 h -33.9 v -2.1 c -21.88,-1.55 -43.68,-2.95 -65.29,-4.54 v -2.25 c -8.96,-0.87 -18.19,-1.61 -27.24,-2.1 v -2.43 h -13.3 v -2.11 h -11.36 v -2.27 c -6.46,-0.9 -13.39,-1.59 -20.04,-2.46 v -2.25 h -9.14 v -2.27 h -9.05 v -2.1 c -5.91,-0.7 -11.82,-1.58 -18.1,-2.47 -24.48,-8.19 -49.51,-16.19 -74.07,-24.6 v -2.11 h -4.71 v -2.43 h -6.65 v -2.26 h -4.71 v -2.1 h -6.65 v -2.3 c -2.95,-0.85 -5.82,-1.55 -9.14,-2.43 v -2.08 h -4.34 v -2.26 h -6.65 v -2.45 c -4.71,-1.39 -9.24,-2.8 -13.58,-4.22 v -2.44 h -4.34 v -2.09 h -4.71 v -2.25 c -4.62,-1.61 -9.32,-3.34 -13.48,-4.55 -0.65,-1.58 -1.57,-3.16 -2.4,-4.55 h -4.44 l -4.34,-4.53 h -4.71 v -2.28 h -4.34 c -0.92,-1.21 -1.57,-2.95 -2.31,-4.56 -2.95,-0.67 -5.9,-1.38 -9.04,-2.1 l -2.31,-4.5 c -2.22,-0.71 -4.53,-1.59 -6.56,-2.3 v -2.09 c -3.02,-1.02 -6.17,-1.71 -9.14,-2.44 v -2.26 l -6.64,-2.09 c -0.7,-1.74 -1.39,-3.17 -2.45,-4.54 h -4.53 c -1.4,-2.26 -2.98,-4.73 -4.54,-6.98 h -4.18 l -2.46,-4.41 h -4.53 c -1.57,-2.23 -2.96,-4.51 -4.36,-6.77 h -4.73 l -4.19,-6.64 h -4.71 c -2.27,-2.97 -4.34,-6.11 -6.81,-8.91 h -4.51 c -2.98,-3.84 -5.94,-7.7 -9.12,-11.52 h -4.19 c -6.11,-6.63 -12.2,-13.46 -18.16,-20.25 h -4.53 c -5.07,-5.76 -10.48,-11.9 -15.72,-17.99 -2.1,-1.42 -4.37,-3.14 -6.64,-4.54 v -4.37 c -6.98,-6.1 -13.62,-12.23 -20.25,-17.98 v -4.55 c -3.84,-3.13 -7.51,-5.92 -11.18,-9.25 v -4.19 c -3.13,-2.26 -6.27,-4.72 -9.09,-6.82 v -4.53 c -2.4,-1.57 -4.88,-3.15 -6.98,-4.52 l -2.1,-6.66 c -1.56,-0.87 -3.12,-1.57 -4.52,-2.11 v -4.87 l -4.56,-2.11 v -4.53 c -1.71,-0.7 -2.79,-1.39 -4.53,-2.26 l -2.26,-6.63 h -2.26 v -4.57 c -1.43,-0.84 -2.99,-1.53 -4.37,-2.29 v -4.5 l -4.39,-2.26 v -4.72 h -2.43 v -4.38 c -1.57,-0.51 -3.15,-1.4 -4.54,-2.24 -1.41,-4.39 -2.97,-8.93 -4.56,-13.29 -1.38,-0.67 -2.77,-1.74 -4.18,-2.45 v -4.36 l -4.88,-4.58 v -4.33 h -2.1 v -4.73 h -2.28 v -4.52 h -2.26 v -4.51 h -2.09 v -4.4 h -2.44 v -4.37 h -2.11 v -4.52 h -2.43 c -1.41,-4.73 -2.98,-9.08 -4.39,-13.81 h -2.25 v -6.61 h -2.09 l -2.64,-9.07 h -2.25 c -0.71,-4.56 -1.05,-8.95 -2.09,-13.51 h -2.28 v -4.33 h -2.11 v -6.98 h -2.27 v -4.57 h -2.43 c -0.67,-4.52 -1.4,-8.69 -2.09,-13.27 h -2.1 v -6.79 h -2.44 v -6.98 h -2.28 v -6.47 h -2.27 c -1.38,-7.48 -3.15,-15.03 -4.37,-22.53 h -2.27 v -9.25 h -2.45 v -6.82 h -2.23 v -8.88 c -23.07,-63.93 -37.41,-136.22 -60.6,-200.34 v -9.23 h -2.3 v -6.64 H 8885 v -8.89 h -2.29 c -0.89,-5.41 -1.39,-10.46 -2.27,-15.74 h -2.43 c -0.69,-5.4 -1.38,-10.63 -2.1,-15.86 h -2.25 v -6.64 h -2.31 v -6.82 h -2.1 v -8.89 H 8867 v -6.98 h -2.63 v -8.91 h -2.1 c -0.69,-5.25 -1.38,-10.52 -2.09,-15.92 h -2.26 c -0.88,-5.05 -1.58,-10.28 -2.29,-15.68 h -2.25 v -6.84 h -2.27 v -6.44 h -2.1 c -1.06,-6.1 -1.75,-12.24 -2.1,-18.33 -25.49,-68.99 -40.33,-146.69 -65.61,-216 v -9.09 h -2.3 v -6.82 h -2.11 v -8.91 h -2.28 c -1.39,-7.5 -3.12,-15.02 -4.51,-22.49 h -2.09 c -1.08,-5.29 -1.78,-10.7 -2.48,-15.73 h -2.25 c -0.7,-5.42 -1.39,-10.66 -2.29,-16.07 h -2.09 v -6.46 h -2.42 v -6.83 h -2.12 v -9.08 h -2.44 v -6.63 h -2.1 v -9.23 h -2.25 c -0.7,-5.07 -1.59,-10.51 -2.29,-15.56 h -2.09 c -1.05,-5.22 -1.74,-10.5 -2.44,-15.7 h -2.11 c -1.04,-5.44 -1.74,-10.49 -2.43,-15.88 h -2.09 v -6.83 h -2.45 v -8.9 h -2.44 v -6.64 h -2.1 v -6.98 h -2.09 v -8.92 c -25.84,-71.94 -28.82,-134.64 -106.01,-157.49 -13.27,-4.21 -37.49,1.55 -44.88,4.33 -4.53,0.54 -9.08,1.58 -13.42,2.27 v 2.3 h -4.75 c -0.84,1.4 -1.35,2.95 -2.1,4.54 l -9.03,2.09 c -1.42,2.26 -3.17,4.35 -4.56,6.82 -5.26,4.51 -10.48,9.07 -15.71,13.59 v 4.37 c -1.43,0.71 -3.15,1.59 -4.55,2.1 v 4.72 c -1.39,0.69 -2.98,1.4 -4.36,2.09 -0.87,3.15 -1.55,6.12 -2.27,9.07 h -2.12 v 4.55 h -2.41 c -1.41,4.55 -3.15,9.1 -4.57,13.65 h -2.24 c -0.75,4.51 -1.42,8.88 -2.3,13.43 h -2.44 v 6.98 h -2.06 v 6.64 h -2.09 c -1.82,7.34 -3.18,14.99 -4.58,22.52 h -2.27 c -0.53,5.09 -1.55,10.3 -2.22,15.71 h -2.15 c -1.04,5.05 -1.71,10.47 -2.26,15.72 h -2.63 c -1.38,7.5 -2.8,15.02 -4.19,22.54 h -2.42 c -0.72,6.1 -1.41,12 -2.09,17.96 h -2.47 c -1.21,7.53 -2.95,14.85 -4.52,22.54 h -2.09 c -0.74,5.21 -1.62,10.66 -2.3,15.54 h -2.26 c -0.7,5.6 -1.4,10.67 -2.09,16.06 h -2.25 v 6.63 h -2.31 v 9.08 c -21.48,58.88 -34.91,125.91 -56.55,184.59 v 9.07 h -2.09 c -0.67,5.24 -1.42,10.46 -2.12,15.89 h -2.41 c -0.75,5.23 -1.59,10.3 -2.29,15.73 h -2.28 v 6.63 h -2.09 v 9.08 h -2.25 v 6.79 h -2.3 v 6.65 h -2.09 c -1.05,5.23 -1.75,10.48 -2.44,15.71 h -2.11 c -0.88,5.4 -1.76,10.46 -2.44,15.89 h -2.08 c -1.05,5.24 -1.57,10.63 -2.46,15.72 h -2.09 v 8.9 h -2.44 v 6.98 h -2.3 v 9.1 h -2.06 v 6.44 h -2.27 v 6.84 h -2.27 c -0.69,5.4 -1.56,10.63 -2.3,15.68 h -2.06 c -1.06,5.4 -1.76,10.67 -2.45,15.92 h -2.11 c -0.69,5.22 -1.58,10.44 -2.08,15.89 h -2.42 v 8.89 h -2.31 v 6.82 h -2.1 v 8.89 c -23.55,64.08 -37.89,136.22 -60.96,200.64 v 8.74 h -2.04 v 6.8 h -2.47 v 9.09 h -2.47 c -1.37,7.52 -2.8,14.83 -4.15,22.51 h -2.3 c -0.86,5.09 -1.56,10.66 -2.26,15.55 h -2.27 c -0.89,5.41 -1.57,10.66 -2.42,16.07 h -2.29 c -0.69,5.07 -1.4,10.49 -2.1,15.73 h -2.43 v 6.8 h -2.1 v 6.47 h -2.11 v 6.98 h -2.3 c -1.72,6.79 -2.93,13.42 -4.67,20.06 h -2.1 v 4.57 h -2.25 v 6.98 h -2.31 v 4.33 h -2.1 v 6.85 h -2.44 v 6.66 h -2.1 l -2.09,9.07 h -2.8 v 6.61 h -2.09 v 4.73 h -2.09 c -0.69,2.94 -1.38,5.94 -2.42,9.08 h -2.1 v 4.52 h -2.46 v 4.37 h -2.27 v 4.4 h -2.08 v 4.51 h -2.31 v 4.52 h -2.09 v 4.73 h -2.43 v 4.33 h -2.09 v 4.58 l -4.7,4.36 v 4.55 c -1.41,0.69 -2.99,1.55 -4.38,2.26 -0.69,2.98 -1.39,5.95 -2.27,8.93 l -4.71,2.24 v 4.38 h -2.09 v 4.72 c -1.41,0.68 -2.99,1.37 -4.55,2.26 v 4.5 l -4.53,2.29 v 4.57 l -4.2,2.09 v 4.54 l -4.75,2.26 v 4.53 c -1.54,0.89 -3.25,1.38 -4.32,2.11 v 4.87 l -4.57,2.11 c -0.67,2.26 -1.72,4.35 -2.41,6.66 -2.28,1.37 -4.39,2.95 -6.62,4.52 v 4.53 l -4.56,2.1 c -0.72,2.46 -1.4,4.72 -2.47,6.81 -3.65,3.14 -7.33,6.14 -10.99,8.92 v 4.7 l -4.69,2.28 v 2.29 c -3.52,2.77 -7.36,5.91 -11.19,8.89 v 4.38 c -8.04,7.68 -16.42,15 -24.8,22.66 -3.68,4.56 -7.68,9.09 -10.98,13.45 h -4.77 c -5.21,6.13 -10.43,12.07 -15.67,18.16 h -4.54 l -2.1,4.38 h -2.29 c -1.74,2.44 -3.13,4.7 -4.72,6.8 h -4.52 c -1.22,2.09 -2.78,4.55 -4.21,6.67 h -4.68 c -1.58,2.22 -2.97,4.52 -4.56,6.78 h -4.37 c -1.4,2.28 -3.12,4.51 -4.54,6.82 h -4.55 c -0.83,1.42 -1.55,2.96 -2.25,4.35 h -4.4 l -4.67,6.84 h -4.54 l -2.1,4.52 c -2.97,0.7 -6.11,1.59 -8.89,2.26 -0.74,1.42 -1.77,2.98 -2.47,4.53 l -6.64,2.3 v 2.09 h -4.52 v 2.41 h -4.56 l -2.28,4.41 c -2.94,1.04 -5.92,1.74 -8.88,2.25 -0.7,1.59 -1.75,3.18 -2.45,4.39 h -4.38 l -4.37,4.69 h -4.51 v 2.28 h -4.56 v 2.45 h -4.54 v 2.1 h -4.55 v 2.25 h -4.56 v 2.09 h -4.52 v 2.44 h -4.37 v 2.11 h -4.7 v 2.11 c -2.79,0.87 -5.93,1.72 -8.89,2.45 v 2.26 h -4.39 v 2.08 h -6.98 v 2.43 c -2.79,0.89 -5.77,1.41 -9.07,2.3 v 2.1 h -6.64 v 2.26 h -4.35 v 2.43 h -6.65 v 2.11 h -4.71 v 2.27 l -13.63,2.25 v 2.3 H 7824 v 2.25 c -32.11,8.92 -64.26,18 -96.75,27.08 h -11.18 c -10.99,3.3 -26.72,5.59 -38.39,8.91 h -13.29 v 2.25 h -18.17 v 2.29 h -17.97 v 2.25 h -27.27 v 2.1 h -35.76 c -18.7,5.42 -49.6,2.45 -72.3,2.45 h -29.33 v -2.45 h -36 v -2.1 h -28.95 v -2.25 h -18.17 v -2.29 h -17.99 v -2.25 h -15.9 v -2.1 l -26.89,-2.43 v -2.11 h -11.18 v -2.27 h -11.17 v -2.46 h -11.36 v -2.25 h -9.25 v -2.27 h -8.72 v -2.1 c -6.28,-0.7 -12.24,-1.58 -18.02,-2.47 v -2.09 l -16.05,-2.24 v -2.28 h -6.62 v -2.28 h -6.81 v -2.09 c -5.24,-0.71 -10.45,-1.57 -15.72,-2.25 v -2.3 h -4.57 v -2.25 c -6.6,-1.41 -13.23,-2.99 -20.24,-4.55 v -2.27 h -4.36 v -2.11 h -6.98 v -2.43 h -4.34 v -2.26 h -6.67 v -2.1 c -3.11,-0.89 -6.08,-1.41 -9.06,-2.3 v -2.43 h -7 v -2.08 c -4.18,-1.4 -9.08,-2.99 -13.27,-4.71 V 3989 h -4.55 v -2.11 h -4.53 v -2.44 h -4.36 v -2.09 h -4.71 v -2.25 h -4.51 v -2.1 h -4.4 l -4.71,-4.73 h -4.37 c -0.86,-1.4 -1.58,-2.93 -2.27,-4.69 -4.37,-1.21 -9.07,-2.8 -13.61,-4.39 -0.72,-1.21 -1.41,-2.95 -2.12,-4.56 -2.97,-0.67 -5.96,-1.38 -8.89,-2.1 l -2.09,-4.5 h -4.72 c -0.87,-1.59 -1.38,-2.99 -2.26,-4.39 h -4.38 c -0.7,-1.71 -1.59,-3.11 -2.48,-4.7 h -4.5 c -0.7,-1.4 -1.4,-2.96 -2.09,-4.52 h -4.53 c -1.41,-2.11 -3.16,-4.37 -4.55,-6.84 h -4.53 c -1.41,-2.25 -3.15,-4.35 -4.37,-6.66 h -4.72 c -1.43,-2.23 -3.15,-4.51 -4.55,-6.77 h -4.37 l -4.35,-6.64 h -4.54 c -3.87,-4.55 -7.68,-8.91 -11.54,-13.45 h -4.52 c -7.36,-8.37 -15.03,-16.6 -22.35,-24.8 -11.16,-10.65 -22.36,-21.09 -33.71,-31.75 v -4.38 c -4.71,-3.81 -8.93,-7.55 -13.64,-11.18 v -4.55 c -1.39,-0.69 -2.95,-1.57 -4.69,-2.43 -0.7,-2.28 -1.4,-4.37 -2.1,-6.82 -2.78,-2.1 -5.96,-4.19 -8.92,-6.45 v -4.56 c -1.55,-0.7 -2.78,-1.59 -4.72,-2.26 v -4.53 c -2.1,-1.6 -4.19,-2.98 -6.61,-4.57 v -4.35 c -1.42,-0.87 -2.98,-1.57 -4.38,-2.11 -0.88,-2.62 -1.39,-4.87 -2.26,-6.98 h -2.08 c -1.09,-2.95 -1.78,-5.92 -2.45,-9.07 l -4.56,-2.26 c -0.71,-2.09 -1.4,-4.56 -2.23,-6.66 h -2.11 c -0.89,-3.12 -1.61,-6.09 -2.65,-9.05 -1.06,-0.72 -2.8,-1.42 -4.19,-2.09 v -4.72 l -4.53,-4.53 v -4.39 h -2.27 v -4.54 h -2.28 v -4.36 h -2.08 v -4.71 h -2.27 v -4.57 h -2.44 v -4.33 h -2.29 v -4.74 h -2.09 v -4.37 h -2.26 c -1.55,-4.53 -2.98,-9.07 -4.72,-13.42 h -2.1 v -6.63 h -2.27 v -4.73 h -2.24 c -8.75,-26.19 -18.01,-52.56 -26.91,-78.75 v -8.91 h -2.45 v -9.28 h -2.3 v -10.97 h -2.23 v -8.9 h -2.12 c -0.68,-7.03 -1.38,-13.81 -2.1,-20.44 h -2.45 v -13.64 c -4.18,-13.43 -4.87,-33.33 -8.88,-47.3 v -22.36 h -2.29 v -27.26 c 0,-0.51 -3.3,-0.32 -2.43,-4.52 h 2.43 v -2.09 h -2.43 V 1173.77 h 563.33 c 10.46,0 34.2,-3.12 40.33,2.28 2.63,2.97 2.28,21.46 2.28,33.7 V 3311.1 c 0,0.74 -2.98,0.74 -2.28,4.56 h 2.28 v 24.79 h 2.25 v 13.43 h 2.11 v 9.09 h 2.27 v 8.93 h 2.45 v 6.8 h 2.11 v 6.79 h 2.42 c 1.4,4.57 2.79,8.95 4.56,13.48 h 2.42 c 0.36,2.95 1.07,6.11 2.1,8.9 h 2.1 c 0.69,2.29 1.39,4.73 2.09,6.99 1.76,0.71 3.16,1.21 4.73,2.29 v 4.35 c 4,2.95 7.14,6.11 11.32,8.87 2.8,4.06 5.79,7.68 8.74,11.4 h 4.72 c 1.59,2.25 2.96,4.34 4.36,6.62 3.14,1.04 6.31,1.72 9.09,2.46 0.7,1.36 1.57,2.94 2.25,4.33 3.67,0.7 7.52,1.59 11.03,2.45 v 2.3 h 4.51 v 2.05 h 7.04 v 2.46 h 6.76 v 2.1 h 8.91 v 2.28 h 15.72 c 24.79,7.12 63.06,0.14 81.38,-6.84 h 6.44 v -2.05 c 2.99,-0.92 6.11,-1.6 9.27,-2.3 v -2.45 h 6.66 v -2.09 c 2.08,-0.88 4.35,-1.57 6.62,-2.24 l 2.41,-4.74 h 4.56 c 2.1,-2.79 4.38,-5.97 6.63,-8.89 4.55,-3.86 9.11,-7.36 13.49,-11.37 v -4.35 c 1.55,-0.72 3.3,-1.42 4.35,-2.12 1.04,-2.23 1.74,-4.52 2.26,-6.78 h 2.46 c 0.69,-3.17 1.54,-5.94 2.27,-9.27 1.35,-0.71 2.94,-1.41 4.53,-2.1 0.7,-2.93 1.39,-6.09 2.09,-8.89 h 2.44 c 0.36,-3.18 1.22,-6.12 2.27,-9.1 h 2.09 v -6.65 h 2.28 c 0.7,-3.29 1.4,-6.09 2.27,-9.07 h 2.27 v -6.8 h 2.11 v -4.53 h 2.1 v -6.82 h 2.43 v -4.36 h 2.46 v -6.66 h 2.1 v -6.97 h 2.24 v -6.81 h 2.11 v -6.63 c 8.89,-21.83 16.22,-47.86 24.95,-69.84 0.68,-4.55 1.57,-9.07 2.31,-13.44 h 2.09 v -9.13 h 2.24 v -6.79 h 2.44 v -6.62 h 2.1 v -6.81 h 2.11 v -6.64 h 2.45 v -6.8 h 2.26 v -9.07 h 2.27 v -6.85 h 2.45 v -6.6 h 2.09 v -6.83 h 2.08 v -6.82 h 2.47 v -6.79 h 2.26 v -9.09 h 2.09 v -6.66 h 2.25 v -6.79 h 2.47 v -6.63 h 2.09 v -6.98 h 2.1 v -6.45 h 2.47 v -9.1 h 2.09 v -6.78 h 2.23 v -6.66 h 2.65 v -6.81 h 2.1 v -6.81 h 2.06 v -6.81 h 2.46 v -8.92 h 2.1 c 0.69,-4.54 1.39,-9.07 2.27,-13.42 h 2.25 v -7 h 2.12 v -6.63 h 2.43 v -6.82 h 2.1 v -6.82 h 2.44 c 1.43,-7.51 2.99,-14.82 4.2,-22.5 h 2.44 c 0.7,-4.39 1.4,-8.93 2.1,-13.46 h 2.28 v -8.88 c 35.28,-96.42 62.01,-201.17 97.06,-297.4 v -9.07 h 2.28 c 0.71,-4.55 1.4,-8.95 2.09,-13.46 h 2.29 v -6.79 h 2.23 v -6.66 h 2.12 v -6.98 h 2.44 v -6.44 h 2.29 v -9.11 h 2.26 v -6.8 h 2.43 v -6.64 h 2.11 v -6.79 h 2.09 v -6.81 h 2.47 l 2.07,-13.46 h 2.44 v -4.52 h 2.09 l 2.28,-13.81 h 2.11 c 0.88,-4.37 1.58,-8.93 2.27,-13.29 h 2.45 v -4.5 h 2.09 v -6.66 h 2.09 v -4.52 h 2.45 c 0.9,-4.57 1.56,-9.1 2.25,-13.46 h 2.28 c 0.71,-4.03 1.44,-7.53 2.45,-11.37 h 2.11 v -4.36 h 2.25 v -6.81 h 2.27 l 2.27,-9.25 h 2.09 v -6.62 h 2.28 l 2.47,-9.1 h 2.09 v -6.63 h 2.05 c 1.78,-4.54 3.16,-9.07 4.75,-13.65 h 2.1 v -4.31 h 2.23 v -6.83 h 2.31 c 1.55,-4.53 2.96,-9.08 4.67,-13.62 h 2.31 v -4.19 h 2.09 v -4.73 h 2.25 v -4.53 h 2.46 v -4.54 h 2.09 v -4.54 h 2.44 v -4.37 l 4.38,-4.53 v -4.4 c 1.39,-1.01 2.79,-1.71 4.34,-2.4 v -4.38 l 4.37,-4.71 v -4.54 h 2.62 v -4.37 l 4.21,-2.26 c 1.56,-4.54 3.13,-9.12 4.52,-13.45 1.59,-0.54 2.98,-1.57 4.72,-2.26 0.87,-3.17 1.25,-5.96 2.29,-8.92 l 4.35,-2.43 v -4.55 h 2.29 v -4.37 l 4.35,-2.27 v -4.36 c 1.74,-0.87 2.98,-1.57 4.73,-2.46 v -4.34 c 1.38,-0.89 3.13,-1.59 4.37,-2.29 v -4.54 l 4.53,-2.25 v -4.58 l 4.68,-2.25 v -4.53 c 1.08,-0.7 2.85,-1.41 4.4,-2.1 v -4.72 c 1.39,-0.51 2.96,-1.41 4.36,-2.09 v -4.54 l 6.98,-4.35 v -4.55 c 2.27,-1.59 4.38,-3.14 6.64,-4.54 v -4.75 c 2.1,-1.19 4.53,-2.97 6.62,-4.5 v -4.19 c 4.04,-3.16 7.69,-6.14 11.56,-9.25 v -4.39 c 3.49,-2.97 7.33,-6.11 11.17,-8.91 v -4.7 c 7.31,-6.83 15.01,-13.45 22.35,-20.27 v -4.38 c 5.25,-4.51 10.63,-8.9 16.05,-13.59 l 2.11,-4.55 h 4.18 c 5.58,-5.93 10.81,-11.86 16.06,-17.99 h 2.29 c 0.68,-1.38 1.38,-3.14 2.09,-4.56 h 4.7 l 8.92,-11.15 h 4.35 c 2.46,-3.14 4.56,-5.93 6.98,-8.91 l 6.98,-2.45 2.09,-4.35 h 4.54 c 0.72,-1.75 1.43,-2.97 2.1,-4.54 l 6.66,-2.09 v -2.44 h 4.67 c 1.62,-2.29 2.99,-4.38 4.41,-6.65 3.15,-1.04 5.94,-1.57 8.92,-2.26 l 2.42,-4.55 c 2.27,-0.7 4.53,-1.58 6.83,-2.44 v -2.1 c 2.78,-0.72 5.91,-1.39 9.09,-2.26 l 2.04,-4.56 c 2.98,-0.7 5.96,-1.55 8.95,-2.09 v -2.26 h 4.34 v -2.46 h 4.73 l 4.35,-4.36 h 4.54 c 0.75,-1.58 1.42,-3.15 2.44,-4.56 h 4.4 v -2.08 h 4.69 v -2.43 h 6.26 v -2.27 h 4.94 v -2.28 l 9.07,-2.26 v -2.28 h 6.66 v -2.3 h 4.5 v -2.08 h 6.62 v -2.41 h 4.57 v -2.1 h 6.63 v -2.28 h 4.53 v -2.28 h 6.98 v -2.26 h 6.64 v -2.09 h 6.64 v -2.45 h 6.98 v -2.1 h 8.7 v -2.27 h 7 v -2.1 h 8.92 v -2.44 h 9.08 v -2.26 h 8.93 v -2.29 h 9.06 v -2.25 c 7.34,-0.69 15.02,-1.4 22.37,-2.27 v -2.1 h 13.61 v -2.46 h 13.61 v -2.09 h 17.83 v -2.27 h 22.69 v -2.27 h 31.62 c 0,0 0.49,-3.14 6.63,-2.25 v 2.25 h 2.26 v -2.25 h 15.71 c 16.43,0 37.03,-0.89 49.6,2.25 5.26,1.24 5.93,-2.62 9.08,-2.25 v 2.25 h 29.36 v 2.27 h 24.78 c 20.09,5.95 45.75,7.35 65.13,13.44 h 11.33 c 30.75,9.79 61.47,19.56 92.39,29.33 v 2.08 c 2.96,1.09 5.93,1.6 8.91,2.3 v 2.28 h 6.8 v 2.26 c 4.54,1.58 8.92,2.99 13.62,4.55 v 2.43 h 4.38 v 2.08 h 4.35 v 2.29 h 4.73 v 2.27 h 4.18 v 2.28 h 4.89 l 4.19,4.54 h 4.73 c 0.51,1.4 1.22,2.8 2.26,4.35 4.37,1.59 9.07,3.14 13.27,4.56 1.04,1.54 1.74,2.96 2.44,4.36 h 4.4 v 2.44 h 4.68 c 0.7,1.58 1.39,2.98 2.27,4.55 h 4.37 l 2.27,4.53 h 4.72 c 0.32,1.21 1.4,2.8 2.1,4.38 h 4.52 l 2.27,4.53 h 4.39 c 1.38,2.25 3.15,4.54 4.34,6.8 h 4.73 c 1.39,2.09 2.97,4.54 4.35,6.64 h 4.72 c 2.11,3.14 4.55,6.12 6.64,9.07 h 4.54 c 2.98,3.86 5.94,7.52 9.08,11.37 h 4.38 c 11.33,11.7 22.51,23.91 33.69,35.98 9.95,9.07 19.92,17.97 29.34,26.88 v 4.7 c 3.84,2.8 7.68,5.94 11.18,8.91 v 4.39 c 3.84,3.11 7.68,6.09 11.51,9.25 v 4.19 c 2.27,1.53 4.54,3.31 6.64,4.5 v 4.75 l 6.63,4.54 v 4.55 c 2.44,1.38 4.54,2.78 6.98,4.35 v 4.54 c 1.4,0.68 3.15,1.58 4.39,2.09 v 4.72 c 2.25,1.4 4.34,2.98 6.98,4.38 0.53,3.12 1.23,5.9 2.08,9.08 l 6.82,4.51 v 4.57 c 1.41,0.7 2.8,1.38 4.53,2.09 l 2.09,9.07 4.56,2.27 c 0.72,2.28 1.55,4.37 2.26,6.62 h 2.09 l 2.31,9.27 c 1.73,0.7 3.12,1.21 4.51,2.27 1.4,4.37 3.14,8.7 4.54,13.28 1.55,0.7 2.97,1.55 4.55,2.26 1.39,4.54 3.14,8.91 4.53,13.45 1.38,0.87 2.8,1.54 4.55,2.44 v 4.54 l 4.36,4.51 v 4.4 h 2.27 v 4.53 h 2.26 v 4.37 h 2.27 v 4.54 h 2.46 v 4.54 h 2.09 v 4.53 h 2.09 v 4.73 h 2.44 v 4.19 h 2.1 v 4.54 h 2.28 v 4.55 h 2.25 c 1.06,2.98 1.75,5.93 2.45,9.07 h 2.28 v 4.39 h 2.09 v 6.79 h 2.27 c 0.69,3.14 1.73,5.93 2.09,9.07 h 2.44 v 6.63 h 2.45 v 4.52 h 2.16 c 0.65,3.16 1.38,6.14 2.03,8.95 h 2.31 c 4.53,13.79 8.87,27.21 13.57,40.67 h 2.31 v 4.55 h 2.03 c 0.74,4.54 1.58,8.89 2.31,13.46 h 2.41 v 4.5 h 2.3 c 1.39,6.82 2.77,13.29 4.34,20.26 h 2.31 v 4.56 h 2.13 c 0.83,4.54 1.75,8.89 2.4,13.46 h 2.13 v 6.8 h 2.03 v 6.81 h 2.67 v 6.79 h 2.03 v 6.64 h 2.31 v 9.07 h 2.31 v 6.84 h 2.4 v 6.44 h 2.31 v 6.98 h 2.03 v 6.66 h 2.31 v 8.89 c 33.71,92.73 58.55,193.49 92.35,286.22 v 9.07 h 2.31 v 6.63 h 2.13 v 6.82 h 2.21 v 6.81 h 2.13 v 6.79 h 2.4 v 6.84 h 2.49 v 8.89 c 28.45,78.39 49.69,164.67 78.59,243.05 v 9.27 h 2.22 v 6.65 h 2.31 v 6.62 h 2.21 v 6.62 h 2.31 v 6.97 h 2.13 v 6.86 h 2.4 v 8.89 h 2.31 v 6.62 h 2.21 v 6.82 h 2.13 v 6.83 h 2.4 v 6.77 h 2.12 v 6.84 h 2.13 v 6.63 h 2.4 c 1.57,6.81 2.96,13.78 4.52,20.44 h 2.13 v 4.36 h 2.49 v 6.82 h 2.03 v 4.53 h 2.5 v 6.8 h 2.21 c 1.39,4.38 2.96,9.07 4.44,13.46 h 2.21 v 4.51 h 2.31 v 4.57 h 2.03 v 4.38 h 2.5 v 4.53 l 4.52,4.36 v 4.54 c 1.39,0.88 2.86,1.56 4.53,2.29 0.74,3.13 1.2,5.91 2.12,9.22 2.13,1.4 4.71,2.8 6.74,4.38 v 4.51 c 2.31,1.59 4.44,2.98 6.75,4.38 2.95,3.86 6.09,7.49 8.86,11.37 h 4.71 l 2.03,4.37 h 4.44 l 2.4,4.7 c 4.52,1.4 9.14,2.79 13.66,4.54 v 2.3 h 6.84 v 2.05 h 4.34 v 2.46 h 9.05 v 2.1 h 9.05 v 2.28 h 13.3 c 7.67,2.1 39.16,5.41 49.59,2.1 12.93,-2.79 25.49,-5.96 38.42,-8.94 v -2.05 h 4.34 v -2.3 c 3.7,-0.86 7.76,-1.75 11.36,-2.45 l 2.49,-4.33 h 4.16 l 2.49,-4.74 h 4.53 c 1.38,-2.09 3.14,-4.34 4.34,-6.63 h 4.71 v -2.26 c 2.96,-2.09 5.91,-4.57 8.96,-6.85 v -4.52 c 2.77,-2.09 5.72,-4.35 8.86,-6.47 v -4.52 c 1.57,-0.87 2.77,-1.57 4.53,-2.26 29,-45.42 24.84,-113.86 24.84,-187.07 v -328.77 c -0.74,-574.33 -1.38,-1148.82 -2.12,-1722.99 h 607.84 v 2164.58 c 0,15.9 1.6,37.03 -2.1,49.24 z m 3247.5,-2213.64 2.2,2.11 c 0,6.97 -2.2,3.48 -4.4,6.78 l 2.2,4.55 -4.5,2.09 2.3,4.54 h -2.3 v 6.82 c -1.6,0.87 -2.9,1.56 -4.3,2.25 v 6.66 h -2.4 v 6.98 h -2.3 c 0.7,1.22 1.7,2.8 2.3,4.53 -1.6,0.69 -3,1.23 -4.6,2.27 l 2.3,2.1 v 2.29 h -2.3 v 6.63 l -4.6,2.26 v 2.27 h 2.5 c -1.4,3.5 -3.5,2.96 -4.5,4.55 l 2,2.25 v 2.27 h -2 v 6.82 c -1.4,0.52 -3.1,1.39 -4.5,2.08 v 6.83 h -2.1 l 2.1,4.53 c -1.6,0.71 -3.1,1.59 -4.6,2.27 l 2.5,2.28 v 2.28 h -2.5 v 6.63 h -2.4 v 6.8 h -2.2 v 6.98 h -2.1 v 6.47 h -2.4 v 6.62 h -2.2 v 4.73 h -2.1 v 8.9 l -4.7,2.28 2.4,2.45 c -1.8,4.35 -3,8.89 -4.6,13.42 h -2 v 8.91 h -2.5 v 4.37 h -2.1 v 9.24 c -1.8,0.89 -3.2,1.42 -4.5,2.31 0.7,1.38 1.3,2.77 2.1,4.54 -1.4,0.68 -3,1.38 -4.5,2.24 l 2.4,4.38 -4.6,2.27 v 11.17 h -2.5 v 4.52 h -2.2 v 9.09 h -2.1 v 4.57 h -2.2 v 8.88 c -1.5,0.7 -3.1,1.58 -4.6,2.29 0.7,1.39 1.5,2.95 2.3,4.54 -0.8,1.55 -5.5,1.04 -4.4,4.34 0.4,2.44 3.5,-0.5 2.1,2.29 l -4.6,2.26 c 0.8,2.09 1.4,4.72 2.5,7 h -2.5 v 4.53 h -2 c -1.6,7.14 -2.9,15.03 -4.6,22.37 l -4.4,2.25 v 6.82 h -2.2 l 2.2,4.35 h -2.2 v 4.54 h -2.5 v 6.82 h -2.1 v 4.38 h -2.4 v 9.07 h -2.1 v 6.98 h -2.2 v 8.9 l -4.8,2.08 2.5,4.56 -4.6,2.27 c 0.8,3.5 2.4,5.21 0,11.15 h -2.1 v 6.85 c -1,1.55 -5.2,1.21 -4.7,4.5 h 2.3 c -1.9,4.55 -1.7,-0.49 -4.4,2.29 2.9,8.56 -0.5,8.73 -4.4,15.71 l 2.2,4.54 c -0.8,1.59 -5.1,1.04 -4.6,4.54 0.5,2.44 3.6,-0.51 2.4,2.11 l -4.9,2.27 2.5,2.44 c -0.1,3.14 -1.1,-1.05 -2.5,2.27 v 6.82 h -2 v 6.62 l -4.4,2.09 c 0.7,1.59 1.5,3.15 2.3,4.73 h -4.9 c 1.4,3.14 2.8,8.2 0,13.44 -1,0.7 -2.9,1.58 -4.3,2.27 1,1.41 1.4,2.94 2.2,4.35 l -4.6,2.47 2.4,4.37 c -3,6.11 -6,12.02 -9,17.98 h 2.3 v 2.26 h -2.3 v 6.99 h -2 v 6.62 c -1.8,0.7 -3.1,1.57 -4.9,2.29 v 11.19 c -0.4,1.57 -4.9,1 -4.3,4.52 h 2.1 v 2.1 h -2.1 v 6.81 h -2.2 v 6.8 c -1.6,0.7 -2.9,1.39 -4.6,2.44 -0.8,5.09 -1.4,10.48 -2.2,15.55 h -2.4 v 4.36 h -2.2 v 11.54 h -2.4 v 6.8 l -4.2,2.1 v 11.34 h -2.3 v 6.63 h -2.4 v 4.55 h -2.3 v 6.81 h -2.1 v 4.56 h -2.3 v 11.16 h -2.3 v 4.55 h -2 v 8.89 l -4.5,2.27 2,2.46 c -0.8,3.64 -1.4,7.34 -2,11.17 h -2.2 v 6.79 h -2.5 v 4.39 h -2.2 c -0.9,4.53 -1.5,9.07 -2.3,13.61 h -2.4 v 4.53 h -2.1 v 8.92 l -4.5,2.26 2,2.27 c -0.3,3.84 -1,7.51 -2,11.19 h -2.3 v 6.79 c -1.6,0.7 -3,1.4 -4.4,2.29 l 2.2,4.54 c -1.4,0.68 -2.9,1.38 -4.6,2.09 l 2.4,2.43 c -0.7,3.14 -1.4,-0.86 -2.4,2.11 v 6.81 c -1.4,0.7 -2.8,1.57 -4.2,2.26 0.7,1.4 1.4,3.15 2.1,4.53 l -4.5,2.13 2.4,2.26 v 2.25 h -2.4 v 6.98 l -4.5,2.1 c 0.6,2.63 2.4,6.13 0,11.19 -1.5,0.71 -3.2,1.76 -4.5,2.44 l 2.1,2.12 c -0.5,3.13 -1.2,-0.55 -2.1,2.25 v 6.64 h -2.6 v 6.82 c -1,0.86 -2.7,1.55 -4.3,2.43 0.8,1.41 1.6,2.98 2.2,4.55 -1.4,0.53 -2.9,1.39 -4.5,2.08 l 2.3,2.46 v 2.08 h -2.3 v 6.81 h -2 v 6.82 h -2.5 v 6.62 c -1.4,0.9 -2.8,1.59 -4.2,2.29 l 2,4.7 -4.5,2.1 2.5,2.27 v 2.1 h -2.5 v 6.8 c -1.6,0.54 -2.8,1.77 -4.5,2.28 0.7,2.99 2.6,5.58 0,11.17 h -2.1 c -2.3,6.12 -4.6,12.05 -7,18.16 h 2.4 c -1,3.32 -3.1,2.28 -4.5,4.36 v 2.46 h 2.1 c -1.1,3.48 -3.3,2.8 -4.4,4.35 l 2.3,2.29 c -0.9,2.27 -1.4,4.53 -2.3,6.63 h -2.2 v 4.54 h -2.5 c 1.1,1.58 1.7,3.14 2.5,4.71 h -2.5 v 4.36 h -2.1 c -0.7,3.84 -1.4,7.52 -2.4,11.36 h -2.2 v 11.18 c -1.5,0.86 -2.7,1.39 -4.5,2.08 l 2.5,2.45 c -2.5,6.12 -4.6,11.87 -6.8,18 h -2.1 l 2.1,4.54 h -2.1 v 4.35 h -2.6 v 6.81 h -2.2 v 4.55 h -2.1 v 11.36 c -1.6,0.52 -3.1,1.41 -4.5,2.23 0.7,2.27 1.4,4.38 2.1,6.84 -1.4,0.52 -2.9,1.41 -4.3,2.1 v 4.52 h -2.7 c 1.3,2.28 1.9,4.36 2.7,6.66 l -4.7,2.43 2,4.55 h -2 v 4.35 h -2.2 c -0.6,2.29 -1.3,4.54 -2.4,6.81 0.9,2.46 3.6,-0.68 2.4,2.29 l -4.5,2.1 v 9.25 l -4.4,2.08 c 0.7,2.11 1.4,4.53 2.1,6.61 -1.4,1.07 -2.9,1.61 -4.3,2.48 v 4.51 h -2.4 c -1.3,3.86 2.1,3.51 2.4,4.39 -1,3.5 -3.2,2.62 -4.6,4.52 l 2.2,4.57 h -2.2 v 4.35 h -2.4 v 9.1 l -4.4,2.25 c 0.6,2.45 2.6,6.45 0,11.34 l -4.3,2.28 v 2.29 h 2.1 c -1.1,3.3 -2.1,3.48 -2.1,8.88 h -4.7 l 2.4,6.83 c -1.8,0.7 -3.4,1.39 -4.7,2.09 l 2.3,4.55 -4.6,2.43 2.3,2.1 v 2.44 h -2.3 v 6.64 c -1.3,0.7 -2.9,1.38 -4.4,2.25 l 2.1,2.08 v 2.48 h -2.1 v 6.64 l -4.5,2.26 c 0.7,1.55 1.5,3.14 2.5,4.37 -1.8,0.87 -3.3,1.74 -4.9,2.45 v 11.18 l -4.3,2.4 c 0.4,2.63 2.5,6.13 0,11.2 -1.7,0.51 -3.1,1.4 -4.5,2.1 0.4,2.58 2.5,6.29 0,11.36 -1,1.4 -5.4,1.19 -4.5,4.54 0.5,2.44 3.5,-0.7 2.3,2.44 l -4.8,2.11 2.5,2.08 v 2.45 h -2.5 v 6.64 h -2 v 6.63 c -1.6,1.04 -3.2,1.74 -4.6,2.44 0.7,2.44 2.4,6.47 0,11.18 -1.4,0.69 -2.8,1.37 -4.7,2.44 v 6.63 h -2.1 l 2.1,2.26 c 0,2.96 -1.1,-0.86 -2.1,2.29 v 6.6 h -2.3 v 6.84 h -2.1 v 4.36 h -2.3 c -1.5,7.51 -2.9,15.35 -4.3,22.71 l -4.5,2.25 c -1.1,5.94 -1.8,11.9 -2.5,18.01 h -2.2 c -1.5,6.8 -3.1,13.46 -4.5,20.25 h -2.4 v 6.63 l -4.5,2.28 c 0.7,3.3 1.4,-0.69 2.4,2.09 -1,3.85 -2,5.41 -2.4,11.53 h -4.4 c 0.7,2.28 1.5,4.54 2.1,6.8 h -4.3 c 1.9,5.25 0.3,4.72 0,13.46 h -4.6 c 0.7,2.27 1.4,4.36 2.1,6.81 l -4.2,2.26 v 11.17 h -2.4 c -0.7,4.56 -1.6,9.07 -2.3,13.45 h -4.4 c 0.7,2.46 1.4,4.55 2.3,6.81 h -4.5 c 0.8,2.28 2.6,6.47 0,11.35 -1.6,0.69 -3,1.39 -4.4,2.28 l 2.1,6.6 c -1.4,0.76 -3.2,1.59 -4.6,2.29 l 2.5,4.51 c -0.7,1.63 -5.3,1.08 -4.5,4.4 h 2 v 2.45 h -4.5 c 1.9,4.54 2.9,4.38 0,9.08 h -2.4 l 2.4,4.53 c -1.4,0.7 -2.8,1.39 -4.5,2.11 l 2.1,2.26 v 2.29 h -2.1 v 6.63 c -1.2,0.69 -2.8,1.73 -4.6,2.43 0.8,2.48 2.8,6.12 0,11.01 l -4.3,2.26 c 0.6,1.58 1.6,3.17 2,4.72 -0.4,1.56 -5,1.07 -4.3,4.55 h 2.3 v 2.27 h -4.4 l 2.1,6.62 c -0.7,1.58 -5.1,1.06 -4.3,4.37 h 2.2 c -1.4,3.68 -3.5,2.98 -4.6,4.52 l 2.4,2.3 -2.4,6.77 h -2.4 v 4.57 h -2.1 l 2.1,2.28 v 2.1 h -2.1 v 6.8 l -4.5,2.47 2.4,2.05 c -0.3,2.99 -1.4,-0.86 -2.4,2.31 v 6.61 h -2.3 v 6.83 h -2.2 v 6.98 l -4.6,2.1 2.1,2.43 -2.1,6.64 h -2.3 v 4.37 h -2.3 l 2.3,2.27 v 2.25 h -2.3 v 6.82 l -4.3,2.26 2.3,4.56 h -2.3 v 6.63 h -2.2 v 6.81 h -2.5 v 6.81 h -2.1 v 6.64 h -2.1 l -2.5,8.92 h -2.2 l 2.2,2.44 v 2.22 h -2.2 v 6.86 l -4.3,2.09 2.2,4.52 h -2.2 c -1.8,6.81 -3.3,13.64 -4.6,20.1 h -2.5 c -0.7,4.71 -1.3,9.21 -2.1,13.79 -1.5,0.53 -2.9,1.58 -4.5,2.28 v 6.6 h -2.5 v 2.29 h 2.5 c -1,3.48 -3.5,3.13 -4.5,4.38 1,4.7 3.1,4.7 0,11.5 h -2.2 v 6.66 h -2.4 v 6.79 h -2.1 v 8.91 c -1.5,0.67 -3.1,1.56 -4.5,2.26 -1.1,5.43 -1.4,10.66 -2.1,15.93 l -4.7,2.23 c 0.7,2.28 1.3,4.37 2.4,6.84 h -2.4 v 4.36 h -2.3 v 6.63 h -2.1 c -0.9,5.4 -1.7,10.64 -2.5,15.86 l -4.5,2.29 2.4,2.26 c -2.4,6.13 -4.6,11.91 -6.9,17.83 h -2.1 c 0.7,1.56 1.3,3.33 2.1,4.53 l -4.5,2.28 2.4,2.08 c -0.4,3.52 -1.2,-0.53 -2.4,2.64 v 6.79 h -2.2 v 6.63 h -2.1 v 6.66 c -1.7,0.87 -3.1,1.75 -4.5,2.26 l 2.3,2.29 c -2.3,6.09 -4.7,12 -6.8,18.14 h -2.3 v 2.27 h 2.3 c -1.2,3.51 -3.6,2.62 -4.6,4.39 v 2.24 h 2.3 l -2.3,6.79 h -2.1 v 4.41 h -2.4 l 2.4,2.44 c -0.4,3.11 -1.4,-0.88 -2.4,2.09 v 6.99 c -1.4,0.69 -3.1,1.22 -4.5,2.09 v 2.26 h 2.2 c -2.2,5.76 -4.5,11.87 -6.8,18.01 h -2.1 l 2.1,4.35 c -0.5,1.74 -5.4,1.41 -4.6,4.53 h 2.5 v 2.28 h -2.5 c -1.7,3.3 -2,5.75 -2,11.36 h -4.6 c -3.8,14.13 -7.7,28.63 -11.2,42.95 h -2 v 4.19 h -2.5 v 9.09 h -2.4 c -0.6,4.52 -1.5,9.03 -2.1,13.6 h -2.5 v 6.65 h -2.1 v 6.8 h -2.5 v 6.8 h -2 v 6.66 h -2.3 v 6.98 h -2.1 c -4,13.46 -7.5,26.69 -11.3,40.34 -18.2,45.36 -31.3,96.56 -49.7,141.78 v 6.98 h -2 v 6.84 h -2.5 v 6.61 h -2.4 v 6.79 h -2.1 v 6.66 c -13.6,34.56 -24.3,75.77 -38.1,110.53 v 8.91 h -2.4 v 4.54 h -2.1 c -1.8,6.79 -2.8,13.42 -4.5,20.06 h -2.3 v 4.57 h -2.3 v 6.98 h -2.1 v 4.33 h -2.5 v 6.85 h -2 v 4.52 h -2.1 v 6.81 h -2.6 c -0.7,2.98 -1.5,5.77 -2.3,8.9 h -2.1 v 6.84 h -2.4 v 4.35 h -2.2 c -1.4,4.73 -2.7,9.25 -4.5,13.62 h -2.3 v 6.63 h -2.2 c -1.4,4.53 -3,8.9 -4.4,13.64 h -2.3 l -2.1,8.9 c -1.6,0.69 -3.3,1.57 -4.5,2.26 v 4.55 l -4.7,4.53 v 4.36 h -2.2 v 4.54 h -2.2 v 4.38 l -4.7,2.63 c -1.3,4.35 -2.9,8.85 -4.3,13.24 -1.6,0.89 -3.1,1.77 -4.6,2.47 l -2.1,8.89 c -1.7,0.89 -3.1,1.58 -4.6,2.1 v 4.54 c -1.6,0.89 -3.1,1.59 -4.6,2.25 v 4.73 c -1.5,0.69 -3,1.37 -4.4,2.26 v 4.4 c -1.8,0.66 -3.2,1.37 -4.6,2.26 v 4.53 c -1.3,0.67 -2.7,1.56 -4.5,2.26 v 4.56 c -2.3,1.38 -4.3,2.95 -7,4.35 v 4.55 c -2,1.59 -4.2,2.97 -6.6,4.37 v 4.7 c -2.1,1.41 -4.4,2.79 -6.7,4.57 v 4.32 c -3,2.29 -5.9,4.57 -9,6.85 v 4.52 c -3.7,2.97 -7.3,5.77 -11.2,8.91 v 4.35 c -11.8,11.54 -24.1,22.87 -35.9,33.89 -6.9,7.68 -13.7,15.2 -20.4,22.55 h -4.5 c -3.8,4.52 -7.5,9.06 -11.2,13.6 h -4.5 c -2.4,2.96 -4.7,6.11 -6.8,9.08 h -4.6 c -1.5,2.11 -2.9,4.54 -4.3,6.63 h -4.5 c -1.6,2.26 -3.2,4.7 -4.5,6.79 h -4.7 c -0.6,1.59 -1.3,2.8 -2.4,4.39 l -6.6,2.41 v 2.1 h -4.5 c -0.6,1.61 -1.4,3.35 -2.2,4.56 h -4.5 c -0.7,1.59 -1.6,3.18 -2.4,4.39 h -4.4 v 2.42 h -4.4 l -2.4,4.55 c -2.9,0.71 -6,1.21 -8.9,2.45 -0.8,1.23 -1.4,2.78 -2.2,4.35 h -4.7 l -4.5,4.53 h -4.3 v 2.11 h -4.4 v 2.11 h -4.5 v 2.45 h -4.8 v 2.26 h -4.7 v 2.08 h -4.2 v 2.43 h -4.7 v 2.3 h -4.3 v 2.1 h -4.6 v 2.26 h -6.6 v 2.43 c -3.1,0.69 -6,1.41 -9,2.11 v 2.27 h -6.9 v 2.25 h -4.4 v 2.3 h -6.9 v 2.25 h -4.3 v 2.3 c -4.5,0.68 -9,1.54 -13.7,2.25 v 2.09 h -6.7 v 2.28 h -6.8 v 2.28 h -6.6 v 2.24 h -6.6 v 2.09 c -6.4,0.89 -12.2,1.77 -18.4,2.47 v 2.1 h -6.8 v 2.27 h -8.9 v 2.25 l -20.4,2.46 v 2.27 h -11.2 c -15.4,4.89 -37.4,6.3 -53.8,11.18 -19.5,1.58 -39.3,2.96 -58.7,4.35 h -27 c -8.2,2.63 -61,5.59 -72.2,2.45 v -2.45 h -42.9 v -2.1 h -24.7 v -2.25 h -20 c -28.6,-5.41 -57.1,-10.65 -85.8,-15.91 -30.6,-9.61 -61.2,-19.39 -92.3,-29.17 v -2.25 c -3,-0.86 -6.1,-1.61 -9.1,-2.27 v -2.11 h -6.6 v -2.43 c -4.4,-1.41 -9.1,-2.98 -13.6,-4.36 v -2.3 h -4.4 v -2.43 h -4.4 v -2.08 h -4.7 v -2.26 h -4.3 v -2.45 h -4.6 l -4.6,-4.22 h -4.5 c -0.7,-1.55 -1.4,-3.1 -2.2,-4.53 -4.5,-1.57 -9.2,-3.12 -13.5,-4.35 l -2.3,-4.73 h -4.4 v -2.27 h -4.5 v -2.42 c -2.4,-0.71 -4.7,-1.21 -6.8,-2.11 -0.8,-1.39 -1.6,-2.79 -2.2,-4.53 h -4.7 l -2.4,-4.41 h -4.3 l -2.1,-4.5 c -2.2,-0.71 -4.7,-1.59 -6.8,-2.3 -1.8,-2.09 -2.8,-4.53 -4.6,-6.79 h -4.5 c -2,-2.96 -4.3,-5.93 -6.6,-8.89 h -4.8 c -3.7,-4.72 -7.3,-9.13 -10.9,-13.64 h -4.8 c -8.2,-8.9 -16.4,-17.81 -24.6,-27.05 -9.1,-8.24 -18.1,-16.44 -27.1,-24.63 v -4.56 c -3.6,-2.98 -7.5,-5.9 -11.3,-9.08 v -4.35 h -2.1 c -1.5,-2.44 -3.1,-4.72 -4.9,-6.81 -1.3,-0.7 -2.8,-1.73 -4.2,-2.42 v -4.38 c -2.2,-1.59 -4.5,-2.98 -6.8,-4.57 v -4.32 l -6.4,-4.57 v -4.7 c -1.8,-0.7 -3.3,-1.4 -4.9,-2.28 v -4.54 c -2.1,-1.21 -4.5,-2.76 -6.7,-4.19 v -4.72 l -4.5,-2.1 c -0.9,-2.26 -1.4,-4.53 -2.3,-6.79 h -2.2 v -4.57 l -4.6,-2.09 -2.1,-6.99 h -2.1 v -4.36 c -1.9,-0.67 -3.3,-1.55 -4.9,-2.43 l -2.1,-8.9 c -1.4,-0.53 -3.1,-1.58 -4.3,-2.09 v -4.57 h -2.3 v -4.37 c -1.3,-1.03 -3.1,-1.72 -4.8,-2.42 v -4.35 l -4.3,-4.72 v -4.53 h -2.4 v -4.39 c -1.3,-0.68 -2.8,-1.56 -4.3,-2.27 v -4.53 l -4.5,-4.55 v -4.36 h -2.4 v -4.58 h -2.3 v -4.33 h -2 v -4.73 h -2.3 v -4.52 h -2.4 v -4.51 h -2.2 v -4.4 h -2.1 v -4.37 h -2.5 v -4.52 h -2.2 c -0.6,-3.14 -1.4,-6.14 -2.2,-9.08 h -2.1 v -4.73 h -2.5 v -6.61 h -2.1 v -4.4 h -2.4 c -0.8,-3.12 -1.4,-6.1 -2.2,-9.23 h -2.2 v -6.64 h -2.3 c -0.6,-3.14 -1.8,-5.94 -2,-9.08 h -2.5 v -6.83 h -2.1 v -4.37 h -2.4 c -0.8,-3.83 -1.6,-7.34 -2.2,-11.18 h -2.2 v -6.79 h -2.3 v -4.54 h -2.4 c -0.7,-4.73 -1.4,-8.91 -2.1,-13.44 h -2.1 v -4.75 h -2.4 c -1.4,-6.63 -3,-13.25 -4.4,-19.87 h -2.3 v -7.03 h -2.5 v -6.78 h -2 v -6.63 h -2.5 v -6.81 h -2 v -6.83 h -2.2 c -0.9,-4.5 -1.7,-8.88 -2.4,-13.43 h -2.1 c -1.1,-4.53 -1.6,-9.09 -2.3,-13.62 h -2.2 c -1.8,-6.45 -3.2,-13.26 -4.8,-20.25 -15.4,-38.96 -27.1,-82.76 -42.8,-121.7 l -6.6,-29.36 h -2.2 v -4.36 h -2.4 v -6.63 h -2 v -6.84 h -2.5 v -6.77 h -2.3 v -6.83 h -2.2 v -8.91 h -2.1 v -6.8 h -2.2 v -6.62 h -2.4 v -6.86 h -2.4 v -6.97 h -2.3 v -6.62 h -2.1 v -6.62 h -2.2 v -6.65 h -2.3 v -6.79 h -2.2 v -6.82 h -2.2 v -6.82 h -2.1 v -6.8 c -13.9,-34.22 -24.7,-73.54 -38.6,-107.91 -2,-9.97 -4.3,-19.56 -6.7,-29.35 h -2.1 v -4.53 h -2.2 c -1,-4.71 -1.7,-9.09 -2.4,-13.66 h -2.3 v -6.6 h -2 v -6.82 h -2.7 v -6.99 h -2.1 v -6.44 h -2.2 c -0.6,-5.24 -1.2,-10.66 -2.3,-15.93 -23.4,-58.46 -39.5,-123.6 -62.8,-182.27 -1.5,-6.8 -3.2,-13.43 -4.7,-20.42 -11.2,-28.3 -19.8,-61.65 -31.4,-90.13 v -6.64 h -2.4 v -4.34 c -1.3,-0.89 -3.1,-1.76 -4.6,-2.29 -0.6,-4.35 -1.4,-9.24 -2.2,-13.64 h -2.3 v -4.51 h -2.1 v -2.1 h 2.1 c -0.3,-3.84 -3.1,-2.61 -4.3,-4.51 v -6.84 h -2.4 c 0.8,-1.56 1.5,-2.98 2.4,-4.37 l -4.8,-2.44 v -2.09 h 2.4 c -1.6,-2.46 -2.7,-4.7 -4.5,-6.98 h 2.1 c -0.3,-2.1 -1.3,-4.55 -2.1,-6.64 h -2.2 v -4.72 h -2.3 c 0.7,-2.1 1.6,-4.39 2.3,-6.47 h -4.3 l 2,-4.52 c -1.4,-0.89 -3,-1.59 -4.5,-2.28 -0.8,-3.84 -1.4,-7.51 -2.2,-11.35 h 2.2 v -2.26 h -4.3 c -2,-2.64 1.5,-1.75 2.1,-2.09 v -2.46 h -2.1 v -6.65 l -4.6,-2.24 v -8.91 h -2.3 c -0.7,-5.42 -1.4,-10.66 -2.4,-15.89 h -2.1 v -4.54 h -2.2 v -6.83 h -2.4 c 1.1,-1.4 1.8,-2.79 2.4,-4.35 h -4.7 c -1.7,-2.64 2,-1.93 2.3,-2.26 l -2.3,-6.84 h -2.3 v -9.06 h -2 v -4.38 h -2.5 v -9.07 h -2 v -4.35 h -2.2 v -11.36 c -1.7,-0.88 -3.3,-1.58 -4.5,-2.29 0.6,-1.39 1.2,-2.95 2.1,-4.53 -1.5,-0.7 -3,-1.41 -4.6,-2.25 -1.4,-2.8 1.4,-1.25 2.5,-2.11 -0.3,-3.84 -3.5,-2.62 -4.6,-4.72 v -6.65 h -2.2 v -6.78 c -1,-2.97 -1.6,0.87 -2.3,-2.1 h 2.3 c -0.4,-4.03 -3.7,-2.63 -4.7,-4.56 v -6.98 h -2.3 v -6.62 h -2.1 v -2.27 h 2.1 c -0.1,-3.69 -3.4,-2.45 -4.4,-4.38 v -9.08 h -2.2 v -4.54 h -2.3 v -6.82 h -2.1 v -6.6 h -2.4 v -6.83 h -2.1 v -6.82 h -2.2 v -6.8 h -2.4 l 2.4,-4.19 -4.7,-2.44 c -1.2,-2.98 1.1,-1.23 2.3,-2.29 V 2408 h -2.3 v -6.82 c -1.4,-0.53 -2.9,-1.4 -4.3,-2.09 v -6.82 h -2.4 v -2.26 h 2.4 c -0.4,-3.67 -3.5,-2.45 -4.5,-4.53 0.7,-1.4 1.3,-3.15 2.1,-4.54 -1.4,-0.7 -3.2,-1.4 -4.5,-2.11 v -6.98 h -2.4 v -2.09 h 2.4 v -2.45 c -1.5,-0.68 -3.1,-1.23 -4.5,-2.1 l 2.1,-4.53 -4.7,-2.28 c -0.3,-5.24 -1,-10.47 -2.1,-15.54 h -2.1 v -4.71 h -2 l 2,-6.83 h -4.5 c 0.7,-1.39 1.4,-2.95 2.5,-4.34 h -2.5 v -4.55 h -2.3 v -6.82 h -2.1 v -6.63 h -2.3 v -6.79 h -2.2 v -6.83 h -2.3 c 0.7,-1.41 1.4,-2.95 2.3,-4.53 -1.6,-0.7 -3,-1.41 -4.7,-2.1 v -11.35 l -4.3,-2.29 c 0.6,-1.56 1.3,-2.99 2.2,-4.52 h -2.2 v -6.63 h -2.4 v -6.83 h -2.5 v -4.53 h -2 v -6.63 h -2.3 v -4.7 h -2.2 v -6.66 h -2.3 v -6.64 h -2.1 v -6.8 h -2.3 l 2.3,-4.73 c -1.6,-0.69 -3,-1.2 -4.4,-2.08 l 2.1,-4.54 c -1.7,-0.7 -3,-1.57 -4.5,-2.26 v -11.17 l -4.6,-2.28 v -6.82 h -2 v -6.81 h -2.3 v -6.81 h -2.3 v -6.63 h -2.3 l 2.3,-4.55 -4.6,-2.08 c 0.9,-1.76 1.5,-3.15 2.3,-4.55 l -4.7,-2.26 2.4,-4.56 h -2.4 c -0.6,-2.26 -1.4,-4.71 -2.2,-6.79 h 2.2 v -2.28 h -2.2 v -4.55 l -4.4,-2.09 2.1,-4.55 c -1.3,-0.68 -2.8,-1.55 -4.3,-2.25 v -6.82 h -2.4 v -2.09 h 2.4 v -2.27 l -4.8,-2.26 v -2.45 h 2.4 c 0.4,-3.68 -3.5,-2.46 -4.5,-4.54 0.7,-1.4 1.8,-2.82 2.1,-4.36 l -4.2,-2.27 c -0.8,-6.64 -1.6,-13.46 -2.3,-20.1 h -4.5 c -2.3,-9.93 -4.4,-19.7 -6.5,-29.32 h -2.6 v -8.92 h -2.2 v -6.99 h -2.1 v -4.52 h -2.5 v -11.19 l -4.5,-2.25 2.4,-4.37 h -2.4 c -0.7,-4.01 -1.1,-7.68 -2.3,-11.52 h -2.1 v -4.55 h -2.3 c -0.6,-4.38 -1.4,-8.91 -2,-13.28 h -2.5 v -11.34 h -2.1 v -6.81 l -4.8,-2.27 v -6.8 h -2 v -6.66 h -2.3 v -6.79 h -2.2 l 2.2,-4.39 -4.3,-2.43 c 0.5,-1.41 1.2,-2.96 2.1,-4.21 -0.9,-1.54 -5.1,-1.23 -4.7,-4.71 0.6,-1.91 3.8,0.53 2.6,-2.26 -1.6,-0.69 -3,-1.4 -4.7,-2.26 1,-3.15 1.7,0.86 2.1,-2.27 -1.1,-2.29 -3.1,-4.38 -4.5,-6.8 0.6,-1.78 4.1,0.51 2.4,-2.1 l -4.6,-2.29 v -6.61 h -2.5 v -6.84 h -2.1 v -6.98 h -2 l 2,-4.54 -4.1,-2.09 v -2.26 h 2.1 c -1.1,-2.63 -4.4,-4.18 -4.5,-4.56 l 2.4,-6.8 h -4.8 c 0.8,-2.09 1.6,-4.39 2.4,-6.63 h -4.6 v -2.29 h 2.2 l -4.3,-6.8 h 2.1 l -2.1,-6.81 h -2.3 c -0.8,-3.65 -1.6,-7.32 -2.2,-10.99 h -2.5 l 2.5,-4.56 -4.6,-2.26 c 0.7,-2.25 1.4,-4.53 2.1,-6.81 0,0 -8.2,0.53 -4.4,-2.26 h 2.3 v -2.26 h -2.3 v -4.57 h -2.3 v -8.9 c -1.5,-0.9 -2.9,-1.57 -4.5,-2.43 l 2.1,-4.41 h -2.1 l -2.4,-11.14 h -2.1 c -2.5,-5.93 -1.6,-6.64 0,-11.33 h -4.5 c -0.8,-6.83 -1.4,-13.45 -2.2,-20.28 h -2.3 c -0.6,-3.15 -1.5,-5.94 -2,-8.89 h -2.7 v -6.81 h -2 v -9.07 h -2.1 c -2.4,-6.65 -4.6,-13.48 -6.9,-20.1 h 2.3 l -4.9,-6.99 h 2.6 v -2.26 h -2.6 v -4.57 h -2.1 c -0.6,-2.09 -1.4,-4.5 -2,-6.6 h 2 c -1,-3.5 -2.9,-2.47 -4.5,-4.56 l 2.5,-4.37 h -2.5 v -4.72 h -2.1 v -4.35 h -2.2 v -6.82 h -2.4 l 2.4,-4.53 -4.4,-2.26 v -6.83 c -1.1,-2.61 -2.9,1.05 -2.5,-2.09 h 2.5 v -2.25 h -2.5 l -2.1,-8.92 h -2.4 c 0.6,-1.57 1.6,-3.14 2.4,-4.54 h -2.4 v -6.82 l -4.4,-2.44 v -6.64 h -2.3 v -6.63 h -2.1 l 2.1,-4.54 -4.3,-2.28 v -6.63 h -2.4 v -6.98 h -2.3 v -6.61 h -2.3 c 0.9,-1.62 1.6,-3.18 2.3,-4.75 -1.4,-0.52 -3,-1.38 -4.5,-2.08 l 2.2,-4.53 h -2.2 v -4.38 h -2.2 v -4.53 h -2.4 v -6.99 h -2.3 c 1,-1.24 1.8,-2.81 2.3,-4.36 h -2.3 v -4.56 h -2.3 c -1.4,-6.61 -2.7,-13.44 -4.3,-20.25 h -2.2 c -0.8,-2.96 -1.5,-5.94 -2.2,-9.08 h 2.2 c -0.8,-3.14 -4.1,-3.68 -4.5,-4.34 v -9.12 h -2.2 c -1.1,-4.35 -1.7,-8.89 -2.4,-13.25 h -2.1 v -4.53 h -2.3 c -0.9,-4.91 -1.4,-9.26 -2.3,-13.8 h -2.1 v -6.63 h -2.6 v -2.29 h 2.6 v -2.08 c -1.5,-0.89 -3.1,-1.77 -4.9,-2.46 v -6.81 h -2.1 v -2.1 c 0.7,-2.95 3.5,0.7 2.1,-2.1 h -2.1 v -4.7 h -2.3 v -6.81 h -2.2 v -4.37 h -2.1 c -0.7,-4.53 -1.4,-9.07 -2.2,-13.45 h -2.4 v -6.78 h -2.1 v -2.31 h 2.1 v -2.26 c -1.7,-0.86 -2.7,-1.57 -4.5,-2.42 v -6.66 c -1.1,-2.96 -2.9,0.88 -2.3,-2.27 0.8,-3.13 3.3,0.69 2.3,-2.27 h -2.3 c -0.8,-2.95 -1.4,-5.94 -2.2,-8.89 h -2.1 c 0.6,-1.59 1.4,-3.14 2.1,-4.55 -1.5,-0.68 -2.9,-1.57 -4.4,-2.27 v -6.8 h -2.4 v -6.65 h -2.3 l 2.3,-4.53 c -1.2,-0.69 -3,-1.57 -4.6,-2.28 1.2,-1.56 1.6,-2.97 2.3,-4.52 -1.1,-0.71 -3,-1.58 -4.4,-2.28 v -6.66 h -2.2 v -2.08 h 2.2 v -2.46 l -4.7,-2.24 v -6.83 h -2.1 v -2.25 h 2.1 v -2.3 c -1.4,-0.68 -2.8,-1.38 -4.2,-2.25 l 2.1,-2.08 c -1.6,-2.28 -2.8,-4.56 -4.5,-6.83 l 2.4,-4.53 h -4.7 c 2.3,-3.84 2.6,-2.79 0,-6.83 h -2.1 l 2.1,-4.35 c -1.3,-0.86 -3,-1.56 -4.4,-2.09 0.7,-2.46 1.4,-4.73 2.3,-6.98 -1.6,-0.89 -3.3,-1.4 -4.5,-2.28 v -6.8 h -2.3 v -2.28 h 2.3 v -2.1 h -4.4 c 0.7,-2.25 1.4,-4.54 2.1,-6.64 h -4.5 c -1,-4.7 -1.6,-9.26 -2.2,-13.78 h -2.4 v -11 c -1.4,-1.05 -3.1,-1.75 -4.5,-2.44 -0.7,-5.1 -1.4,-10.49 -2.1,-15.72 h -2.4 c -0.8,-6.12 -1.4,-11.89 -2.3,-17.98 -1.4,-0.72 -2.8,-1.76 -4.4,-2.46 v -6.47 c -3.1,-7.83 -6.6,-13.08 -6.6,-24.97 h 650.6 c 0.9,14.5 7.4,25.67 11.5,35.98 v 9.26 h 2.3 v 4.52 h 2.1 v 6.66 h 2.2 v 2.26 h -2.2 v 2.09 c 1.6,0.7 2.9,1.73 4.3,2.45 -0.6,1.39 -1.4,2.8 -2.1,4.38 l 4.4,2.44 v 2.09 h -2.3 c 1.3,2.8 4.6,3.84 4.9,4.36 v 6.81 h 2.1 c -0.7,2.26 -1.7,4.72 -2.1,6.82 h 4.3 c 0.8,6.8 1.5,13.44 2.2,20.25 h 2.3 v 4.55 h 2.2 v 4.52 h 2.1 v 6.82 h 2.3 v 6.65 h 2.4 v 6.79 h 2.4 c -1,1.59 -1.6,2.99 -2.4,4.55 1.4,0.66 3,1.59 4.6,2.28 l -2.2,4.33 h 2.2 v 4.55 h 2.1 v 9.07 h 2.2 v 6.84 h 2.3 v 4.36 h 2.5 v 11.19 l 4.4,2.42 v 6.65 h 2.2 v 6.8 h 2.3 v 6.82 h 2.3 v 2.25 h -2.3 c 1,3.34 2.9,2.46 4.3,4.39 v 2.25 h -2 c 0.8,2.82 4.1,4.03 4.1,4.54 v 6.66 h 2.4 l -2.4,2.42 v 2.26 h 2.4 v 6.85 l 4.7,2.24 c 0.6,6.13 1.3,11.72 2.2,17.82 h 2.3 c 1.4,4.52 2.8,9.1 4.5,13.61 h -2.1 v 2.1 l 4.4,2.47 -2.3,4.34 c 1.4,0.69 3,1.57 4.5,2.46 v 8.91 h 2.2 v 4.34 h 2.4 l -2.4,4.55 4.5,2.09 -2.1,2.63 c 0.1,4.89 4.9,5.78 4.2,8.9 h -2.1 v 2.27 h 4.5 l -2.4,4.54 h 2.4 v 4.35 h 2.3 v 9.12 h 2.2 v 4.34 h 2.2 v 6.98 h 2.2 v 6.64 h 2.3 v 2.27 h -2.3 c 1.3,3.5 3,2.46 4.8,4.55 -1.1,1.58 -1.8,2.79 -2.5,4.38 l 4.7,2.41 c -0.8,1.4 -1.6,2.99 -2.2,4.37 1.4,0.91 2.9,1.76 4.5,2.29 v 9.08 h 2.1 v 6.8 h 2.4 v 10.99 c 1.2,0.87 2.8,1.57 4.2,2.46 v 6.61 h 2.5 v 6.85 h 2 c 1.8,7.49 2.9,14.99 4.8,22.5 h 2 v 4.54 h 2.4 v 11.36 h 2.4 c 0.7,2.97 1.3,5.77 2.1,9.09 h 2.1 l -2.1,4.37 4.5,2.25 c -1,2.09 -1.4,4.38 -2.4,6.82 l 4.7,2.1 v 6.79 h 2.2 v 2.29 c -0.4,2.43 -3.5,-0.54 -2.2,2.26 1.4,0.7 2.8,1.58 4.4,2.27 v 11.19 h 2.4 v 4.53 h 2.1 c 0.7,2.28 1.7,4.38 2.5,6.79 h -2.5 v 2.09 c 1.7,0.91 2.7,1.59 4.5,2.29 -0.6,1.75 -1.8,3.14 -2,4.54 1.4,0.88 2.7,1.39 4.3,2.1 v 9.26 h 2.2 v 6.63 h 2.2 v 9.1 h 2.4 v 4.52 h 2.1 v 6.64 h 2.5 v 6.82 h 2.1 v 6.79 h 2.2 c -0.6,1.57 -1.4,2.99 -2.2,4.54 1.6,0.7 3,1.58 4.4,2.29 v 2.25 h -2.2 c 0.8,2.97 1,-0.7 2.2,2.09 v 6.64 h 2.5 c 2.6,5.07 1.2,4.37 0,9.45 h 4.3 v 6.44 h 2.4 l -2.4,6.83 4.7,2.22 c 0.6,4.41 1.2,9.12 2,13.47 h 2.3 v 6.84 h 2.4 v 6.8 h 2.1 v 2.28 h -2.1 v 2.25 l 4.5,2.26 c 0.8,5.96 1.5,11.9 2.2,17.99 l 4.5,2.1 -2.4,4.73 4.5,2.25 v 8.92 h 2.2 v 4.54 h 2.2 c -0.5,2.25 -1.2,4.35 -2.2,6.64 h 4.8 c 0,6.46 1.4,7.48 2.3,11.16 -2,2.79 -2.6,-0.7 -2.3,2.45 l 4.4,2.27 v 9.1 h 2.2 v 4.34 h 2.1 c 0.9,4.56 1.6,9.08 2.5,13.46 h 2.4 c 0.8,5.93 1.4,12.05 2.1,18.14 l 4.6,2.11 -2.5,4.72 4.6,2.09 -2.1,4.36 h 2.1 v 4.56 h 2.2 v 11.49 h 2.3 v 6.66 l 4.5,2.27 v 8.92 h 2.2 v 6.78 h 2.4 v 4.38 h 2.1 l -2.1,4.55 c 1.4,2.25 3.3,1.21 4.3,4.7 -1.8,2.43 -2.6,-1.06 -2.2,2.28 1.6,0.53 3.1,1.39 4.9,2.08 l 2,18.17 h 2.1 v 4.37 h 2.3 v 6.8 h 2.3 v 8.91 h 2.3 v 4.54 h 2.2 v 11.33 h 2.1 v 6.66 c 1.8,1.03 3.2,1.56 4.7,2.26 l -2.6,4.55 4.9,2.43 c 1,1.76 4.2,16.07 4.4,17.81 h -2.3 v 2.29 c 1.5,0.85 3.2,1.58 4.6,2.27 v 11.35 h 2.4 c 0.7,3.64 1,7.33 2.1,11.35 h 2.2 v 4.34 h 2.3 c 0.8,4.55 1.4,9.09 2.2,13.47 h 2.4 l -2.4,4.53 4.5,2.26 -2.1,4.56 4.1,2.26 c -0.3,1.4 -1.4,2.79 -2,4.55 1.7,0.7 2.8,1.38 4.7,2.08 v 9.08 h 2 v 4.54 h 2.3 c -0.7,2.09 -1.4,4.37 -2.3,6.62 1.6,0.9 3.1,1.59 4.6,2.3 v 6.98 h 2.1 v 6.61 h 2.3 v 2.27 h -2.3 v 2.11 l 4.7,2.46 v 8.9 h 2.1 v 4.38 h 2.1 c -0.5,1.55 -1.2,3.13 -2.1,4.53 1.6,0.86 3.1,1.56 4.9,2.45 v 11.16 h 2.1 v 6.8 h 2.1 l 2.1,8.92 h 2.5 v 11.36 h 2.2 v 4.54 h 2.3 v 6.61 h 2.2 c -0.8,1.58 -1.5,2.95 -2.2,4.57 1.4,0.69 3,1.56 4.3,2.26 l -2.1,4.37 h 2.1 v 6.82 h 2.3 l 2.5,9.08 h 2.1 c -0.8,1.55 -1.2,2.95 -2.1,4.51 1.3,0.71 2.9,1.39 4.1,2.28 -0.5,1.4 -1.2,2.99 -2,4.38 h 2 v 4.71 h 2.5 v 6.63 h 2.3 c 0.7,5.23 1.4,10.5 2,15.89 h 2.7 v 4.38 h 2.1 c 1.3,6.59 2.7,13.43 4.6,20.24 h 2 c -0.6,1.42 -1.4,2.97 -2,4.55 l 4.3,2.09 v 2.44 h -2.3 c 0.6,3.16 1.2,-0.9 2.3,2.27 v 6.78 c 1.6,0.74 3,1.43 4.7,2.14 l -2.5,6.79 h 4.6 c -0.7,1.58 -1.8,2.78 -2.1,4.37 1.4,0.88 2.8,1.75 4.2,2.45 v 2.09 h -2.1 c 0.5,7.69 3.8,4.89 4.6,6.82 l -2.5,4.54 h 2.5 c 0.6,2.97 1.4,5.93 2.2,9.08 h 2.1 v 6.64 c 1,2.98 1.6,-0.89 2.3,2.27 h -2.3 v 2.26 l 4.3,2.1 v 6.83 h 2.4 c 0.8,4.5 1.5,9.23 2.3,13.6 h 2.4 c -0.8,1.4 -1.4,3.15 -2.4,4.52 l 4.6,2.29 -2.2,4.53 h 2.2 v 4.38 h 2.1 v 6.64 h 2.3 v 6.94 h 2.4 v 2.29 h -2.4 v 2.27 l 4.5,2.29 v 6.65 h 2.4 v 6.77 h 2.2 v 2.11 h -2.2 v 2.28 h 2.2 v 6.8 l 4.5,2.27 v 6.83 h 2.1 l -2.1,4.52 c 1.4,0.69 3.1,1.23 4.3,2.09 v 11.36 h 2.7 l 2,8.91 h 2.2 v 9.06 h 2.3 v 6.84 h 2.2 v 6.61 h 2.5 v 6.83 h 2 l -2,4.54 c 1.2,0.85 2.9,1.55 4.5,2.27 v 2.09 h -2.5 c 0.6,3.67 3.5,2.8 4.6,4.71 0.7,4.53 1.4,8.91 2.3,13.64 h 2.3 v 2.09 h -2.3 v 2.24 l 4.3,2.27 v 2.3 h -2 v 2.08 h 2 v 6.81 h 2.3 v 4.56 h 2.3 c 0.7,4.51 1.7,9.07 2.4,13.59 h 2.1 c -0.7,1.57 -1.7,2.84 -2.1,4.37 1.4,0.71 3,1.59 4.4,2.1 v 6.81 h 2.3 v 6.83 h 2.1 l -2.1,4.7 4.5,2.09 c -0.8,1.41 -1.6,3.14 -2.4,4.55 1.6,0.7 3,1.37 4.5,2.26 1.4,7.35 3.2,15.04 4.7,22.36 h 2.3 v 4.89 h 2.1 c -0.7,2.09 -1.4,4.35 -2.1,6.64 1.4,0.7 2.8,1.39 4.4,2.27 v 6.62 h 2.2 c -0.7,1.58 -1.4,2.97 -2.2,4.37 h 2.2 c 0.7,3.15 1.7,6.1 2.1,9.26 h 2.4 l -2.4,4.33 c 1.8,0.76 3,1.42 4.7,2.31 v 6.64 h 2.3 v 6.8 h 2.1 l -2.1,4.52 c 1.4,0.72 2.8,1.58 4.6,2.31 -0.8,1.72 -1.8,2.95 -2.5,4.52 1.7,0.7 3.1,1.58 4.5,2.09 l -2,6.83 4.1,2.25 v 6.83 c 1.5,2.95 1.8,-0.89 2.5,2.43 h -2.5 v 2.11 l 4.5,2.26 v 6.64 h 2.5 c -0.7,1.57 -1.5,3.1 -2.5,4.52 1.8,0.7 3.2,1.57 4.9,2.31 -1,1.53 -1.7,2.93 -2.4,4.51 l 4.6,2.26 -2.2,4.56 4.3,2.27 v 8.91 h 2.4 v 4.7 h 2.3 l -2.3,4.37 c 1.4,0.49 2.9,1.37 4.3,2.26 0.9,3.68 1.6,7.68 2.3,11.18 -1.4,2.65 -1.7,-0.87 -2.3,2.12 h 4.6 v 2.44 h -2.3 c 0.7,3.65 4,3.31 4.6,4.53 v 8.89 h 2.1 v 2.27 h -2.1 v 2.28 h 2.1 v 4.53 h 2.4 c 3,6.45 -0.4,5.57 0,8.93 1.5,0.84 3,1.53 4.5,2.27 l -2.4,4.7 c 1.8,0.71 3.1,1.21 4.5,2.1 1,5.26 1.6,10.66 2.3,15.71 h 2.1 v 4.54 h 2.6 c 0.3,2.8 -4,3.86 -2.6,8.9 h 2.6 v 6.98 h 2.3 v 6.66 h 2.1 v 6.79 h 2.2 v 6.82 h 2.3 v 6.64 h 2.3 v 9.08 h 2.1 c 1.1,4.56 1.7,9.07 2.4,13.63 h 2.2 v 6.6 h 2 v 6.67 h 2.5 v 6.8 h 2.2 v 6.78 h 2.1 v 6.64 h 2.3 c 1.1,4.73 1.8,9.11 2.4,13.64 h 2.2 c 0.8,5.43 1.4,10.46 2.4,15.91 h 2.1 c 0.8,4.51 1.6,8.89 2.2,13.4 h 2.3 v 6.66 h 2.5 v 6.81 h 2 v 6.81 h 2.2 v 6.81 h 2.4 v 6.66 h 2.3 c 0.7,4.53 1.4,9.03 2.1,13.44 h 2.3 v 8.89 h 2 c 1.1,4.72 1.8,9.26 2.4,13.61 h 2.5 v 6.79 h 2.2 v 6.66 h 2 v 6.81 h 2.5 v 6.99 h 2.4 v 6.65 h 2.1 c 1.2,6.8 3.2,13.64 4.5,20.08 h 2.3 v 9.25 h 2.1 c 0.9,4.52 1.5,9.07 2.3,13.62 h 2 v 6.44 h 2.5 v 6.84 h 2.5 v 6.79 h 2 v 6.81 h 2.2 v 6.65 h 2.2 c 0.9,4.7 1.5,9.07 2.3,13.6 h 2.3 c 1.4,7.51 3.1,14.85 4.7,22.53 h 2 c 0.8,4.57 1.4,8.91 2.5,13.46 h 2.2 v 6.79 h 2 v 6.84 h 2.3 v 6.62 h 2.4 v 6.81 h 2.3 v 6.81 h 2.1 c 1.8,7.5 3,14.81 4.6,22.49 h 2.1 v 6.67 h 2.4 v 6.82 h 2.1 v 6.78 h 2 v 6.64 h 2.7 v 6.98 h 2 v 6.65 h 2.4 c 0.6,4.35 1.3,9.1 2.4,13.62 h 2.3 c 1.2,4.37 2.9,8.9 4.3,13.3 h 2.3 v 4.7 h 2.2 c 1.4,4.52 2.9,8.9 4.6,13.41 2.1,1.59 4.2,2.98 6.6,4.38 v 4.57 c 3.9,2.92 7.8,6.1 11.5,8.89 2.2,3.32 4.5,6.1 6.7,9.07 h 4.5 c 0.6,1.59 1.4,3.15 2.1,4.75 3.2,0.48 6.1,1.17 9.1,2.05 v 2.46 h 4.3 v 2.1 h 6.9 c 16.8,6.47 46.2,6.28 63.2,0 4.4,-0.7 8.7,-1.58 13.2,-2.1 v -2.46 h 4.8 v -2.05 h 4.4 c 0.6,-1.6 1.4,-3.16 2.4,-4.75 h 4.5 l 2.1,-4.33 h 4.6 c 2.1,-3.17 4.3,-6.15 6.6,-9.08 1.8,-0.87 3.1,-1.63 4.5,-2.29 v -4.35 l 6.7,-4.76 v -4.52 c 1.6,-0.7 3.1,-1.4 4.7,-2.09 0.9,-2.98 1.2,-6.1 2.3,-8.9 1.4,-0.87 3,-1.57 4.3,-2.26 v -4.73 h 2.3 v -6.64 h 2.1 c 1.1,-2.93 1.7,-6.09 2.5,-8.89 h 2 c 1.8,-6.85 3.1,-13.64 4.8,-20.44 h 2 v -6.81 h 2.3 v -6.8 h 2.5 v -6.64 h 2.1 v -6.64 h 2.4 v -6.66 h 2.3 v -6.97 h 2.1 c 1.4,-7.33 3,-15.01 4.7,-22.37 13.6,-34.87 24.1,-75.56 38.3,-110.34 1.3,-6.8 2.7,-13.78 4.3,-20.43 h 2.1 v -8.89 h 2.2 v -6.83 h 2.3 v -6.82 h 2.4 v -6.79 h 2.2 v -6.81 h 2.1 c 1,-4.35 1.7,-8.94 2.4,-13.29 h 2.3 v -6.79 h 2 v -6.63 h 2.7 v -6.99 h 2.1 v -6.63 h 2.3 c 1.2,-7.51 2.9,-15.02 4.3,-22.54 h 2.3 v -6.8 h 2.3 v -6.8 h 2.4 v -6.86 h 2.1 v -6.6 h 2.1 v -6.82 h 2.5 v -9.07 h 2.2 c -0.9,-2.28 -1.5,-4.36 -2.2,-6.81 h 2.2 v -4.39 h 2.1 v -6.62 h 2.3 c 1,-5.39 1.8,-10.66 2,-15.89 l 4.9,-2.26 v -6.8 h 2.2 c 1.3,-4.23 -1.4,-2.98 -2.2,-4.38 0.8,-2.29 1.4,-4.53 2.2,-6.83 h 2.3 v -8.9 l 4.7,-2.23 c -1.1,-1.59 -1.8,-3.17 -2.5,-4.56 0,0 3.9,-2.64 4.5,-4.73 -1.7,-1.56 -3.1,0.88 -2,-2.08 1,-0.72 2.8,-1.38 4.1,-2.27 -0.6,-1.59 -1.3,-2.99 -2.1,-4.55 h 2.1 v -6.63 h 2.5 v -6.84 h 2.1 v -6.62 h 2.3 v -6.98 c 1.5,-0.7 2.9,-1.39 4.3,-2.27 v -11.19 c 1.8,-0.69 3.2,-1.57 4.7,-2.25 l -2.2,-6.63 c 1,-1.58 3.1,-1.23 4.5,-4.58 -2.1,-2.41 -2.5,0.9 -2.3,-2.23 h 4.4 c 1.9,-2.83 -1.4,-1.95 -2.1,-2.27 1.4,-4.71 3,-9.07 4.4,-13.6 h 2.6 c -1.1,-1.61 -1.8,-2.83 -2.6,-4.4 1.5,-0.67 2.9,-1.74 4.7,-2.44 l -2.1,-4.37 h 2.1 v -6.61 h 2.2 v -4.55 h 2.3 c 1.4,-7.7 2.8,-15.19 4.5,-22.53 h 2.2 c 0.7,-4.37 1.3,-9.07 2.1,-13.62 h 2.2 v -4.36 h 2.3 l -2.3,-4.71 c 1.8,-0.7 3,-1.42 4.7,-2.12 -0.6,-1.38 -1.7,-2.96 -2.4,-4.54 h 2.4 v -6.79 h 2.1 v -6.64 h 2.3 v -6.64 c 1.6,-0.88 3,-1.77 4.4,-2.43 0.6,-5.25 1.7,-10.5 2.5,-15.91 h 2.2 v -4.37 h 2.2 v -2.24 h -2.2 v -2.31 h 2.2 v -8.89 h 2.3 c 0.8,-3.14 1.4,-6.11 2.3,-9.07 h 2.1 l -2.1,-4.54 h 4.5 l -2.4,-6.84 c 1.4,-0.68 3.1,-1.37 4.5,-2.05 -0.5,-1.58 -1.4,-3.16 -2.1,-4.75 1.6,-0.51 2.8,-1.39 4.6,-2.09 v -11.18 l 4.3,-2.26 v -2.09 h -2.2 v -2.63 h 2.2 v -6.66 h 2.1 v -6.61 l 4.7,-2.43 c 0.8,-6.63 1.4,-13.29 2.2,-20.28 h 4.5 c -0.7,-2.24 -1.4,-4.52 -2.5,-6.62 1.8,-0.7 3.3,-1.58 4.7,-2.45 -0.6,-1.4 -1.4,-2.77 -2.2,-4.4 0.8,-1.37 5.3,-1.01 4.5,-4.51 -0.3,-1.04 -3.9,0.38 -2.3,-2.29 h 4.8 c -1.5,-3.28 -2.8,-8.19 0,-13.41 1.4,-0.89 2.8,-1.43 4.5,-2.26 -1.1,-1.41 -1.7,-3.17 -2.5,-4.56 h 2.5 v -4.35 h 2.1 v -4.54 h 2.3 v -2.3 h -2.3 c 1.3,-3.62 3.5,-2.95 4.4,-4.51 l -2.1,-2.09 c 0.5,-3.34 1.2,0.67 2.1,-2.47 v -8.9 h 2.2 v -4.53 h 2.5 v -6.81 h 2 c 0.8,-5.25 1.4,-10.67 2.2,-15.72 1.7,-0.53 3.3,-1.74 4.7,-2.26 v -2.28 h -2.2 c 1.4,-3.49 3.3,-2.79 4.5,-4.56 l -2.3,-4.53 h 2.3 v -4.53 h 2 l 2.3,-6.84 h -2.3 c 1.5,-3.47 3.7,-2.76 4.6,-4.36 l -2.3,-2.25 c 2.3,-5.94 4.7,-12.03 7.1,-18 h 2 l -2,-2.26 v -2.27 h 2 v -6.8 l 4.4,-2.28 -2.1,-2.11 c 2.1,-6.77 4.5,-13.42 6.6,-20.27 h 2.4 c -0.6,-3.1 -1.3,0.74 -2.4,-2.42 1.4,-3.51 3.6,-2.79 4.6,-4.52 l -2.2,-4.37 h 2.2 c 3.8,-13.47 7.6,-27.09 11.1,-40.52 h 2.4 v -9.08 c 1.4,-0.71 3.1,-1.39 4.7,-2.09 v -2.45 h -2.5 c 1.2,-2.98 4.1,-3.32 4.5,-4.19 v -4.73 h 2.5 l -2.5,-6.79 c 1.6,-0.69 2.9,-1.42 4.9,-2.28 l -2.4,-2.09 c 0.4,-2.45 1.2,-4.55 2.4,-6.82 h 2.1 v -4.53 h 2.1 c -0.7,-1.4 -1.4,-2.97 -2.1,-4.4 h 2.1 c 0.7,-4.51 1.6,-9.05 2.2,-13.58 h 2.4 c 0.6,-5.27 1.3,-10.66 2.2,-15.72 h 2.1 v -4.56 h 2.3 c 0.7,-2.79 1.8,-6.09 2.4,-8.89 h 2.1 v -9.27 h 2.4 v -2.25 c -0.5,-2.98 -3.7,0.71 -2.4,-2.09 l 4.6,-2.28 -2.2,-2.27 v -2.28 h 2.2 v -6.79 c 1.5,-0.71 2.9,-1.39 4.7,-2.09 -1,-1.59 -1.8,-3.18 -2.5,-4.57 0.7,-1.56 5.4,-1.03 4.8,-4.51 -0.8,-2.46 -3.9,0.51 -2.3,-2.29 l 4.3,-2.29 -2,-4.5 c 1,-0.7 2.7,-1.4 4.3,-2.28 l -2.3,-2.1 c 0.7,-3.15 1.4,-6.13 2.3,-9.07 h 2.2 v -9.09 l 4.6,-2.09 -2.4,-2.3 c 1.2,-3.29 3.3,-2.42 4.5,-4.51 l -2.1,-2.48 c 1.4,-3.46 3.2,-2.77 4.2,-4.5 l -2.1,-2.11 2.1,-6.63 h 2.4 v -4.7 h 2.3 l -2.3,-2.1 c 2.3,-6.11 4.6,-12.06 6.7,-18 h 2.5 v -11.35 h 2 v -4.36 h 2.1 c 1,-6.11 1.9,-12.25 2.4,-18.17 l 4.6,-2.26 c -0.3,-2.63 -2.5,-6.12 0,-11.36 1.4,-0.7 3.2,-1.56 4.6,-2.1 -0.9,-1.55 -1.4,-2.95 -2.2,-4.53 h 2.2 c 1.3,-6.63 2.7,-13.44 4.7,-20.26 h 2.1 v -4.53 h 2.2 l 2.1,-15.72 4.6,-2.09 c -0.7,-1.6 -1.6,-3.32 -2.4,-4.73 h 2.4 c 0.7,-2.09 1.3,-4.36 2.1,-6.62 h -2.1 v -2.45 h 2.1 c 1.9,-2.6 5.5,-6.8 4.5,-11.17 h -2.1 v -2.29 l 4.5,-2.09 -2.4,-2.26 v -2.46 h 2.4 v -6.63 c 0.7,-1.58 5.3,-1.04 4.6,-4.37 h -2.3 c 1.2,-3.87 3.7,-3.13 4.4,-4.7 l -2.1,-2.28 c 1.4,-4.54 2.8,-8.92 4.5,-13.43 h 2.3 v -6.82 h 2.3 c -1,-1.4 -1.8,-2.97 -2.3,-4.54 1.3,-0.91 3,-1.4 4.3,-2.1 0.9,-6.11 1.7,-12.04 2.3,-17.98 1.6,-0.7 3,-1.4 4.4,-2.46 v -2.09 h -2.1 c 1.4,-3.48 3.4,-2.79 4.5,-4.54 l -2.4,-2.25 2.4,-6.83 h 2.2 v -4.36 h 2 l -2,-2.27 v -2.43 h 2 v -6.82 c 1.8,-0.53 3.3,-1.22 4.7,-2.11 l -2,-2.28 v -2.25 h 2 V 1980 h 2.3 v -6.63 h 2.1 c 1.1,-5.26 1.8,-10.46 2.4,-15.89 l 4.6,-2.26 -2.2,-2.13 c 2.2,-6.09 4.5,-12.02 6.6,-18.14 h 2.6 c -1.1,-1.41 -1.8,-2.96 -2.6,-4.21 l 4.6,-2.42 -2,-2.29 v -2.26 h 2 v -6.82 h 2.1 v -4.51 h 2.5 v -8.92 l 4.4,-2.08 c -0.8,-2.29 -1.6,-4.77 -2.3,-6.84 h 2.3 v -4.53 h 2.3 v -9.08 c 1.4,-0.7 3,-1.4 4.3,-2.26 v -6.66 h 2.2 l -2.2,-4.7 c 0.7,-1.41 5.5,-0.89 4.7,-4.39 -0.3,-2.24 -3.7,0.55 -2.5,-2.24 l 4.7,-2.29 c -0.4,-2.46 -2.5,-6.09 0,-11.17 l 4.5,-2.44 -2.3,-4.35 h 2.3 c 0.6,-4.55 1.4,-9.11 2.4,-13.46 h 2.1 c 0.8,-3.31 1.4,-6.11 2.4,-9.07 h 2.1 v -2.26 h -2.1 l 2.1,-6.84 h 2.3 c -0.5,-3.13 -1.3,0.89 -2.3,-2.26 1,-3.3 2.2,-3.51 2.3,-8.9 h 4.4 c 2.6,-1.93 -2.1,-2.31 -2.1,-2.31 0.7,-7.64 3.1,-4.16 4.3,-6.6 l -2.2,-4.54 c 1.7,-0.87 2.9,-1.56 4.5,-2.26 l -2.3,-4.73 4.8,-2.08 -2.5,-4.73 h 2.5 v -6.64 h 2 v -6.63 h 2.2 v -6.64 h 2.4 v -4.69 h 2.1 c 1.6,-7.52 3.1,-14.85 4.9,-22.53 h 2.1 v -4.55 h 2 l -2,-4.38 4.5,-2.25 c 1,-2.99 -1.4,-1.06 -2.5,-2.28 v -2.09 h 2.5 v -6.99 c 1.4,-0.71 2.8,-1.4 4.4,-2.26 v -6.66 h 2.3 c -0.8,-1.75 -1.6,-2.96 -2.3,-4.51 1.5,-0.7 2.9,-1.59 4.7,-2.28 -0.7,-1.4 -1.8,-2.98 -2.4,-4.53 h 2.4 v -6.84 h 2.1 v -6.62 h 2.1 v -6.81 h 2.4 v -9.07 c 1.4,-0.7 2.8,-1.4 4.4,-2.29 -0.7,-1.38 -1.6,-2.61 -2.2,-4.34 l 4.5,-2.3 v -2.07 h -2.3 v -2.45 h 2.3 v -6.64 l 4.3,-2.44 c 1.8,-2.79 -1.2,-1.07 -2.3,-2.27 l 2.3,-6.65 h 2.6 v -8.89 l 4.3,-2.28 -2.2,-4.54 4.6,-2.28 -2.4,-4.55 h 2.4 v -6.78 h 2.1 v -6.8 h 2.4 c 1.5,-7.36 3,-15.03 4.4,-22.36 1.6,-0.89 3,-1.57 4.5,-2.27 -0.8,-1.39 -1.5,-3.14 -2.2,-4.72 l 4.5,-2.11 c 1.4,-2.78 -1.2,-0.84 -2.3,-2.25 v -2.29 h 2.3 v -6.78 l 4.2,-2.1 -2.1,-4.37 h 2.1 v -6.83 h 2.4 c 0.9,-3.14 1.6,-6.09 2.5,-9.07 h 2 c 1,-6.79 1.7,-13.64 2.3,-20.26 l 4.7,-2.45 v -6.45 h 2.4 v -6.81 h 2 v -2.63 h -2 c 0.3,-3.5 3.3,-2.29 4.3,-4.35 -0.7,-1.4 -1.4,-2.99 -2.3,-4.54 1.6,-1.93 3.3,-0.88 4.6,-4.54 h -2.3 v -2.09 l 4.5,-2.29 -2.2,-4.54 h 2.2 v -4.34 h 2.1 c 0.7,-4.57 1.4,-9.08 2.4,-13.66 h 2.2 v -8.89 h 2.5 v -9.07 h 2 v -4.38 h 2.3 v -9.09 l 4.3,-2.26 c 1.8,-2.8 -1,-1.03 -2.3,-2.42 0.4,-2.97 1.3,0.85 2.3,-2.1 v -6.83 c 1.8,-0.69 3.2,-1.38 4.8,-2.27 l -2.4,-4.35 c 1.5,-0.7 3.1,-1.59 4.7,-2.29 l -2.3,-4.53 4.3,-2.27 -2,-4.52 h 2 c 1.6,-6.83 3,-13.62 4.6,-20.46 h 2.4 v -4.35 h 2.1 c 1.6,-7.5 2.8,-14.85 4.6,-22.52 h 2.2 v -4.55 h 2.1 v -2.08 h -2.1 c 0.4,-3.84 3.7,-2.64 4.4,-4.56 -0.7,-1.56 -1.6,-2.99 -2.3,-4.54 h 2.3 l 2,-9.09 h 2.5 c -0.6,-1.56 -1.3,-2.94 -2.5,-4.35 h 2.5 v -6.82 h 2.1 v -6.8 h 2.5 c 0.6,-4.53 1.5,-8.91 2.1,-13.45 h 2.4 v -4.37 h 2.5 c 0.6,-6.11 1,-12.19 2,-18.17 1.4,-0.69 2.8,-1.38 4.6,-2.25 -1.1,-1.59 -1.8,-3.14 -2.5,-4.53 h 4.7 c -0.8,-2.29 -1.5,-4.38 -2.2,-6.83 h 2.2 v -6.64 l 4.4,-2.25 -2.2,-4.53 h 2.2 v -4.57 h 2.1 l 2.5,-11.34 h 2 c -0.6,-1.39 -1.5,-2.8 -2,-4.37 l 4.5,-2.1 v -2.44 c -3.3,-3.3 4,-14.32 4.4,-22.53 h 646.4 c -0.3,16.09 -8,32.84 -13.6,45.24 z M 1761.43,4006.99 v -2.26 h -36.11 v -2.1 h -29.2 v -2.3 h -25.04 v -2.43 h -20.15 v -2.08 h -18.09 v -2.26 h -17.91 v -2.45 h -13.51 V 3989 h -15.82 c -38.26,-8.21 -76.48,-16.6 -114.89,-24.8 v -2.25 c -5.24,-0.7 -10.4,-1.43 -15.64,-2.31 v -2.1 l -15.88,-2.41 v -2.09 h -6.66 v -2.3 h -6.69 v -2.09 h -6.8 v -2.44 c -4.76,-0.67 -8.99,-1.56 -13.64,-2.26 v -2.09 h -4.42 v -2.43 l -13.51,-2.11 v -2.26 h -4.41 v -2.47 h -6.99 v -2.25 c -2.89,-0.68 -5.87,-1.42 -8.92,-2.1 v -2.31 h -6.63 v -2.23 h -4.64 v -2.28 c -3.74,-0.7 -7.46,-1.22 -11.07,-2.26 v -2.3 l -13.61,-4.34 v -2.46 h -4.61 v -2.09 h -4.31 v -2.1 h -4.64 v -2.26 h -4.53 l -4.27,-4.54 h -4.62 l -2.36,-4.7 c -4.47,-1.39 -9.08,-2.98 -13.39,-4.38 l -2.49,-4.53 c -2.93,-0.7 -5.95,-1.43 -8.74,-2.3 v -2.09 c -2.38,-0.86 -4.57,-1.73 -6.82,-2.44 l -2.23,-4.36 h -4.75 c -0.71,-1.74 -1.24,-3.12 -2.23,-4.53 h -4.41 v -2.28 c -2.26,-0.7 -4.47,-1.38 -6.8,-2.28 -0.75,-1.56 -1.59,-2.98 -2.11,-4.35 h -4.45 c -1.65,-2.63 -3.22,-4.73 -4.55,-6.98 h -4.63 c -1.4,-2.1 -3.03,-4.54 -4.27,-6.82 h -4.8 c -1.32,-2.09 -2.89,-4.51 -4.45,-6.61 h -4.55 c -3.07,-3.87 -5.85,-7.71 -8.69,-11.17 -2.56,-1.07 -4.65,-1.78 -6.85,-2.29 -6.09,-6.98 -12.11,-13.8 -18.25,-20.25 -7.34,-6.82 -15.02,-13.61 -22.34,-20.27 v -4.73 c -3.93,-2.98 -7.52,-5.91 -11.45,-8.89 v -4.54 c -2.85,-2.26 -5.63,-4.35 -8.9,-6.82 v -4.39 c -2.18,-1.55 -4.45,-3.11 -6.8,-4.5 v -4.35 c -2.2,-1.77 -4.3,-3.14 -6.65,-4.72 v -4.53 c -1.56,-0.74 -3.07,-1.41 -4.45,-2.3 l -2.35,-6.63 h -2.27 v -4.36 c -1.5,-0.67 -2.89,-1.74 -4.71,-2.45 v -4.36 c -1.27,-0.89 -2.8,-1.58 -4.29,-2.47 v -4.33 c -1.39,-0.7 -3.06,-1.59 -4.62,-2.11 -0.54,-3.32 -1.37,-6.11 -2.21,-9.25 -1.39,-0.7 -2.94,-1.4 -4.43,-2.28 l -2.26,-8.89 c -1.47,-0.7 -3.07,-1.58 -4.54,-2.11 v -6.83 c -1.39,-0.83 -2.97,-1.72 -4.28,-2.42 -1.77,-4.35 -3.24,-9.08 -4.61,-13.64 h -2.37 v -4.36 h -2.29 c -1.48,-4.53 -2.88,-8.9 -4.44,-13.42 h -2.36 v -6.85 h -2.18 v -4.33 h -2.09 c -0.7,-3.14 -1.66,-5.91 -2.38,-9.27 h -2.26 v -6.8 h -2.19 c -0.69,-2.78 -1.39,-5.76 -2.16,-8.75 h -2.29 v -6.79 h -2.34 v -4.54 h -2.12 c -1.12,-4.73 -1.65,-8.91 -2.32,-13.44 h -2.21 v -4.75 h -2.26 l -31.71,-110.32 v -10.99 h -2.1 v -11.54 h -2.19 v -11.17 h -2.5 v -8.95 h -2.28 v -15.67 h -2.2 l -2.222,-27.11 h -2.215 v -13.59 h -2.172 v -18.02 h -2.467 v -18.1 h -2.179 v -22.38 h -2.096 v -22.72 h -2.356 v -29.34 h -2.352 v -40.32 c -4.091,-14.83 -2.089,-39.8 -2.089,-58.5 V 2016.16 c 0,-16.78 -1.237,-38.79 2.089,-51.87 v -22.52 c 0.794,-15.04 1.652,-29.88 2.352,-45.1 h 2.356 v -24.6 h 2.096 v -20.42 h 2.179 v -17.8 h 2.467 v -15.89 h 2.172 v -15.73 c 5.927,-19.75 7.687,-44.18 13.607,-63.2 v -13.45 c 9.97,-31.95 17.11,-68.98 29.18,-99.18 1.57,-6.65 2.97,-13.44 4.63,-20.07 h 2.26 v -4.57 h 2.21 c 0.67,-4.55 1.2,-9.05 2.32,-13.61 h 2.12 v -4.52 h 2.34 v -6.84 h 2.29 v -4.35 h 2.16 v -6.64 h 2.19 c 0.68,-3.31 1.57,-6.1 2.26,-8.9 h 2.38 c 0.51,-3.86 1.38,-7.51 2.09,-11.54 h 2.18 c 1.73,-4.51 3.23,-8.89 4.62,-13.44 h 2.18 v -4.37 h 2.29 v -4.54 h 2.37 v -4.53 h 2.15 v -4.54 h 2.46 v -4.56 l 4.28,-4.54 v -4.52 c 1.47,-0.55 3.07,-1.4 4.54,-2.1 l 4.45,-13.43 c 1.57,-0.88 3.08,-1.58 4.45,-2.28 v -4.72 h 2.34 v -4.55 c 1.59,-0.7 3.27,-1.38 4.47,-2.25 v -4.54 c 1.59,-0.7 3.05,-1.39 4.6,-2.09 v -4.37 c 1.51,-0.89 2.9,-1.77 4.48,-2.46 v -4.34 c 1.5,-0.88 3.05,-1.77 4.56,-2.47 v -4.2 c 1.38,-0.85 2.78,-1.56 4.59,-2.41 v -4.58 c 2.1,-1.38 4.3,-3.14 6.65,-4.52 v -4.37 c 2.27,-1.73 4.45,-2.98 6.55,-4.53 v -4.54 c 3.95,-2.98 7.68,-5.94 11.26,-8.91 v -4.56 l 15.97,-13.61 v -4.52 c 6.02,-5.25 12.15,-10.48 17.99,-15.71 2.19,-3 4.36,-5.94 6.82,-9.12 h 4.53 c 5.15,-5.73 10.49,-11.86 15.54,-17.96 h 4.61 c 2.21,-2.8 4.47,-5.94 6.66,-8.93 h 4.8 c 1.24,-2.24 2.87,-4.52 4.27,-6.78 h 4.63 c 1.33,-2.29 2.9,-4.54 4.55,-6.84 h 4.45 c 0.52,-1.38 1.36,-2.96 2.11,-4.33 2.33,-0.69 4.54,-1.62 6.8,-2.28 v -2.28 h 4.41 c 0.99,-1.56 1.52,-2.99 2.23,-4.54 h 4.75 c 0.56,-1.57 1.36,-2.96 2.23,-4.52 2.25,-0.7 4.44,-1.4 6.82,-2.1 v -2.47 c 2.79,-0.69 5.81,-1.56 8.74,-2.08 0.84,-1.56 1.82,-3.13 2.49,-4.36 28.57,-14.33 57.05,-28.66 85.49,-42.95 33.1,-11.35 66.08,-22.53 99.2,-33.71 5.93,-0.88 11.96,-1.61 17.89,-2.46 25.24,-8.39 57.18,-12.21 83.45,-20.25 l 29.17,-2.09 c 20.6,-6.1 48.65,-5.23 69.6,-11.35 h 25.04 v -2.27 h 29.35 v -2.25 c 38.06,-0.71 76.47,-1.4 114.74,-2.29 h 1425.5 v 594.4 H 1921.31 c -32.03,0 -71.6,-2.82 -96.93,4.73 -11.22,0.86 -22.51,1.36 -33.59,2.08 v 2.64 h -11.54 v 2.09 h -11.08 v 2.26 h -9.08 v 2.09 h -8.89 v 2.45 h -7.01 v 2.1 h -6.63 v 2.28 h -6.78 v 2.22 l -13.39,2.31 v 2.1 c -4.71,1.53 -9.18,3.14 -13.8,4.71 v 2.09 h -4.28 v 2.26 h -4.7 v 2.27 c -2.8,0.89 -6.03,1.58 -8.91,2.28 l -2.16,4.55 h -4.48 v 2.26 c -2.09,0.7 -4.79,1.38 -6.98,2.28 l -2.09,4.53 h -4.48 c -2.33,2.8 -4.52,6.1 -6.8,8.91 -5.25,4.55 -10.57,8.9 -15.71,13.44 v 4.73 c -2.18,1.39 -4.72,2.95 -6.81,4.34 v 4.53 c -1.5,0.73 -2.86,1.41 -4.61,2.3 v 4.54 c -1.33,0.7 -2.89,1.56 -4.38,2.25 -1.58,4.39 -2.98,8.92 -4.61,13.46 h -2.1 v 4.54 h -2.2 c -1.79,4.53 -3.05,9.08 -4.6,13.45 h -2.18 v 6.82 h -2.27 v 6.61 h -2.21 v 6.82 h -2.36 v 6.97 h -2.25 v 8.75 h -2.37 v 6.81 h -2.18 c -3.75,21.81 -7.51,43.65 -11.27,65.49 v 24.62 c -4.27,16.75 -2.09,62.14 -2.09,90.1 v 184.76 H 3267.9 v 594.58 H 1583.51 c -0.17,128.87 -11.59,278.34 27,367.03 0.68,4.57 1.47,8.91 2.18,13.46 h 2.24 c 1.49,4.34 3.08,9.07 4.56,13.63 h 2.1 v 4.36 h 2.52 c 0.51,3.15 1.39,5.92 2.09,9.07 1.49,0.68 3.05,1.56 4.38,2.26 v 4.55 c 1.75,0.52 3.11,1.39 4.61,2.28 v 4.34 c 2.09,1.58 4.63,3.17 6.81,4.55 v 4.4 c 5.14,4.67 10.46,9.23 15.71,13.59 2.28,3.17 4.47,6.14 6.8,8.92 h 4.48 c 1.39,2.43 3.05,4.68 4.28,6.8 h 4.79 c 0.7,1.72 1.3,3.14 2.19,4.52 h 4.45 c 0.67,1.59 1.42,2.99 2.35,4.39 3.08,1.04 6.05,1.71 9.07,2.59 v 2.11 h 4.31 v 2.28 h 4.45 v 2.26 c 4.54,1.42 9.17,2.98 13.79,4.35 v 2.47 l 13.44,2.28 v 2.1 h 6.66 v 2.42 h 6.71 v 2.11 h 6.78 v 2.26 h 9.17 v 2.1 h 8.92 v 2.43 h 11.11 v 2.11 h 11.43 v 2.29 h 15.71 v 2.44 h 18.06 v 2.26 h 22.54 v 2.29 h 54.04 c 22.53,6.23 59.04,2.23 85.48,2.23 H 3267.9 v 590.04 H 2002.22 c -80.22,-0.84 -160.54,-1.55 -240.79,-2.43 M 16296.9,3133.16 v 31.46 h -2.4 v 24.98 h -2.2 v 17.81 h -2 v 15.88 h -2.7 c -1.4,14.29 -2.9,28.65 -4.3,42.99 h -2.2 c -1,7.31 -1.7,14.99 -2.3,22.31 h -2.5 c -0.3,6.82 -1.1,13.61 -2.1,20.42 h -2.3 v 8.93 h -2.2 v 8.89 h -2.1 v 8.95 h -2.5 v 6.92 h -2 v 8.95 h -2.2 v 6.64 h -2.4 v 6.8 h -2.3 v 8.91 h -2.3 v 6.98 h -2.2 v 6.61 h -2.1 v 6.85 h -2.2 v 4.53 h -2.5 c -0.7,4.36 -1.4,8.9 -2.2,13.63 h -2.4 c -0.7,2.97 -1.3,5.77 -2.1,8.9 h -2.4 v 6.77 h -2.1 v 4.38 h -2.1 v 6.83 h -2.4 c -0.8,3.13 -1.6,6.13 -2.3,8.91 h -2.3 v 6.79 h -2.1 c -0.8,3.15 -1.6,5.92 -2.3,9.26 h -2.2 v 4.38 h -2.4 v 6.62 h -2.1 c -1.4,4.55 -3.2,8.91 -4.6,13.79 h -2.3 v 4.56 h -2.1 v 4.18 h -2.6 c -1.4,4.57 -2.8,9.07 -4.2,13.63 -1.4,0.89 -3.2,1.4 -4.6,2.26 v 4.55 l -4.3,4.38 v 4.5 h -2.6 v 4.73 h -2.1 v 4.35 c -1.4,0.72 -2.8,1.21 -4.5,2.29 l -2.2,8.9 -4.5,2.27 c -1,2.09 -1.4,4.51 -2.1,6.61 h -2.2 l -2.7,9.28 c -1.4,0.54 -2.8,1.22 -4.3,2.27 v 4.36 c -1.4,0.71 -3,1.57 -4.4,2.26 v 4.55 c -1.4,0.7 -2.9,1.42 -4.5,2.08 v 4.75 c -1.8,0.69 -3.1,1.39 -4.5,2.06 v 4.56 c -1.6,0.88 -2.9,1.59 -4.6,2.09 v 4.73 c -2.1,1.42 -4.4,2.95 -6.6,4.54 v 4.53 c -1.8,0.71 -3.2,1.25 -4.6,2.26 v 4.58 l -4.5,2.05 -2.1,6.64 c -3.2,2.28 -6,4.57 -9.1,6.8 v 4.75 c -3.2,2.23 -5.9,4.33 -9.1,6.64 v 4.54 c -3.1,2.1 -5.9,4.52 -9,6.66 v 4.67 c -6,5.06 -12.1,10.49 -18,15.74 v 4.35 c -8.4,7.51 -16.7,15.02 -24.7,22.53 -6.9,7.48 -13.7,15.01 -20.4,22.52 h -4.3 c -4.7,5.24 -9.1,10.67 -13.7,15.74 h -4.7 c -2.8,3.82 -5.7,7.48 -8.7,11.34 h -4.7 c -1.5,2.26 -2.9,4.68 -4.3,6.76 h -4.7 c -1.4,2.29 -2.9,4.39 -4.3,6.86 h -4.5 l -4.6,6.63 h -4.6 l -2.4,4.36 h -4.1 c -1.1,1.76 -1.8,3.32 -2.5,4.54 h -4.4 c -0.7,1.59 -1.5,3.14 -2.3,4.87 h -4.5 l -2.4,4.37 h -4.2 l -2.4,4.4 h -4.6 v 2.26 h -4.6 c -0.6,1.58 -1.4,2.95 -2,4.53 -3.2,0.67 -5.9,1.56 -9,2.26 l -2.4,4.56 h -4.3 l -4.6,4.35 h -4.6 v 2.1 h -4.5 v 2.45 h -4.5 v 2.09 h -4.4 v 2.28 h -4.7 v 2.43 h -4.4 v 2.27 h -4.3 v 2.28 c -4.6,1.22 -9.1,2.97 -13.6,4.52 v 2.09 h -7 v 2.29 c -3,0.69 -5.9,1.74 -8.7,2.28 v 2.28 h -6.8 v 2.1 h -4.7 v 2.42 c -4.3,0.88 -9.2,1.57 -13.5,2.09 v 2.28 h -4.4 v 2.44 h -6.6 v 2.1 h -7.1 v 2.25 h -6.4 v 2.1 h -6.9 v 2.63 h -9.4 v 2.1 h -6.5 v 2.25 h -8.8 v 2.28 h -9.1 v 2.28 h -9.1 v 2.1 h -8.9 v 2.43 h -11.3 c -10.8,3.16 -27.3,5.62 -38.1,8.89 h -16 v 2.3 h -20.3 v 2.09 c -26.2,1.05 -52.4,1.75 -78.6,2.44 v 2.1 h -1554.2 v -571.88 c 18.3,0 42,1.6 56.3,-2.27 h 1304.1 c 61.8,0 123.9,3.11 166.6,-15.74 v -2.23 c 2.8,-0.89 6.1,-1.59 9.1,-2.47 v -2.09 h 4.3 c 0.9,-1.39 1.6,-2.96 2.3,-4.73 h 4.5 c 1,-1.21 1.6,-2.78 2.3,-4.34 h 4.7 c 0.5,-1.41 1.2,-2.99 2.1,-4.55 h 4.6 l 4.5,-6.62 h 4.4 c 1.5,-2.29 2.9,-4.38 4.3,-6.86 5.6,-4.32 10.7,-9.01 16.1,-13.59 v -4.37 c 2.7,-2.25 5.9,-4.53 8.9,-6.8 v -4.52 h 2.2 c 0.8,-2.28 1.4,-4.37 2.5,-6.85 2.1,-1.36 4.2,-2.95 6.3,-4.34 1,-3.14 1.8,-5.94 2.4,-9.1 1.6,-0.68 3,-1.38 4.5,-2.24 1.2,-2.98 1.5,-5.96 2.2,-9.09 h 2.3 v -4.19 h 2.4 c 1.5,-4.55 2.9,-9.1 4.5,-13.62 h 2.1 c 0.8,-4.71 1.6,-9.25 2.3,-13.65 h 2.4 v -4.52 h 2.2 v -8.91 h 2.4 v -6.82 h 2.1 v -9.07 h 2.2 v -8.88 h 2.3 v -13.48 c 5.1,-17.46 4.4,-42.24 4.4,-65.5 V 3034 h -2.3 v -15.54 h -2.1 v -13.62 h -2.3 v -9.07 h -2.2 c -0.8,-5.24 -1.4,-10.65 -2.1,-15.53 h -2.4 v -6.84 h -2.2 v -6.79 c -20.2,-46.28 -51.5,-84.87 -92.5,-110.4 h -4.5 v -2.22 h -4.5 v -2.44 h -6.7 v -2.12 c -3,-0.7 -6,-1.4 -9,-2.29 v -2.42 h -9.2 v -2.09 h -6.6 v -2.29 h -6.7 v -2.09 h -13.4 c -22.5,-6.63 -56.8,-4.53 -85.8,-4.53 H 14682 v -2.1 h -35.9 v -2.44 l -58.8,-4.39 v -2.42 h -13.4 v -2.08 h -13.5 v -2.28 h -11.5 v -2.27 h -11 v -2.44 h -9 v -2.12 h -11.4 v -2.26 h -6.6 v -2.28 c -6.3,-0.7 -12.2,-1.57 -18.1,-2.23 v -2.31 c -5.3,-0.66 -10.6,-1.42 -15.8,-2.25 v -2.27 h -6.8 v -2.12 h -6.6 v -2.25 h -6.9 v -2.27 c -4.5,-0.87 -9,-1.57 -13.5,-2.26 v -2.11 h -4.5 v -2.43 c -4.6,-0.89 -8.8,-1.56 -13.5,-2.1 v -2.45 c -3,-0.7 -5.8,-1.58 -9,-2.28 v -2.25 h -6.7 v -2.31 c -3,-0.5 -6.1,-1.21 -9,-2.23 v -2.29 h -4.5 v -2.09 h -6.9 v -2.28 c -4.3,-1.73 -9,-2.97 -13.3,-4.55 v -2.05 h -4.6 v -2.47 c -3.1,-0.9 -6.2,-1.4 -9.1,-2.12 -0.7,-1.54 -1.4,-3.13 -2,-4.68 -4.6,-1.41 -9.2,-2.98 -13.7,-4.38 -0.7,-1.4 -1.4,-3.15 -2.2,-4.57 -3.1,-0.67 -5.8,-1.37 -9,-2.23 -0.6,-1.4 -1.7,-2.98 -2.5,-4.54 l -8.7,-2.3 c -0.6,-1.37 -1.7,-2.79 -2.4,-4.52 h -4.5 v -2.28 c -2.1,-0.51 -4.4,-1.39 -6.6,-2.09 l -2.5,-4.55 h -4.6 l -2.1,-4.34 c -2.2,-0.89 -4.5,-1.76 -6.6,-2.29 -1.7,-2.26 -3,-4.35 -4.7,-6.98 h -4.4 c -1.5,-2.26 -3.1,-4.35 -4.5,-6.66 h -4.5 c -3.2,-3.81 -5.9,-7.31 -9.1,-11.12 h -4.2 c -4,-4.55 -7.7,-9.1 -11.4,-13.65 h -4.7 v -4.55 h -4.2 c -3.3,-3.63 -6,-7.32 -9.1,-11.16 -8.3,-7.52 -16.7,-15.01 -24.9,-22.52 v -4.73 c -5.5,-4.35 -10.3,-8.9 -15.7,-13.28 v -4.51 c -3,-2.09 -5.9,-4.56 -9,-6.82 v -4.38 c -3.1,-2.26 -6.1,-4.53 -9,-6.79 v -4.54 c -2.3,-1.42 -4.6,-2.97 -7,-4.56 v -4.51 c -2.1,-1.41 -4.2,-2.99 -6.2,-4.57 v -4.35 l -4.9,-2.26 v -4.38 c -2.2,-1.74 -4.7,-3.32 -6.8,-4.71 -0.6,-2.97 -1.4,-5.93 -2.2,-9.09 -1.6,-0.51 -3,-1.21 -4.3,-2.1 v -4.53 l -4.9,-2.29 c -0.4,-2.95 -1.4,-5.92 -2.2,-9.07 -1.3,-0.86 -2.9,-1.4 -4.3,-2.09 v -4.52 l -4.5,-2.28 v -4.55 h -2.3 v -4.52 h -2.2 v -4.55 l -4.7,-4.39 v -4.54 c -1.4,-0.68 -2.9,-1.55 -4.3,-2.23 -1.6,-4.55 -3,-8.94 -4.5,-13.5 h -2.4 v -4.69 h -2.2 c -1.5,-4.36 -3.1,-8.89 -4.5,-13.27 h -2.3 v -6.82 h -2.2 v -4.52 h -2.1 l -2.2,-9.1 h -2.4 v -6.6 h -2.4 v -4.73 h -2.1 v -6.63 h -2.3 v -4.55 h -2.3 c -0.6,-4.54 -1.4,-8.73 -2.4,-13.46 h -2.1 v -4.53 h -2.2 c -0.8,-4.54 -1.6,-9.08 -2.4,-13.45 h -2.1 v -6.79 h -2.4 v -6.65 h -2.1 v -6.98 h -2.1 v -6.64 h -2.4 v -9.07 h -2.3 v -6.66 h -2.2 v -6.62 h -2.4 v -11.54 h -2 v -8.89 h -2.3 v -9.07 h -2.5 v -8.92 h -2.2 c -0.7,-7.51 -1.2,-15.02 -2.2,-22.52 -3.4,-10.82 -5.7,-27.23 -8.8,-38.26 v -15.71 h -2.5 v -20.41 h -2 v -20.27 h -2.5 c -0.4,-24.8 -1.4,-49.42 -2.2,-74.2 h -2.2 V 2002.7 c 0.8,-127.64 1.2,-255.47 2.2,-382.95 v -351.16 c 0,-8.56 1.8,-22.52 -2.2,-27.22 -0.1,-18.02 -3,-44.53 2.2,-58.51 h 590.3 v 470.78 c 0,43.65 5.2,103.54 -4.5,139.53 v 76.65 h 2.1 v 33.7 h 2.4 v 22.51 c 4.4,22.53 8.7,45.07 13.1,67.42 h 2.7 c 0.2,5.4 1.4,10.66 2,15.88 h 2.1 v 6.83 h 2.5 v 6.79 h 2.1 v 4.55 h 2.3 c 0.6,4.37 1.5,8.91 2.5,13.61 h 2.2 c 0.7,2.8 1.4,5.56 2.1,8.92 h 2.4 c 2.1,6.63 4.3,13.42 6.5,20.08 1.9,1.03 2.9,1.56 4.7,2.26 v 6.98 l 4.5,2.08 c 0.7,2.98 1.4,5.93 2.1,8.92 1.6,0.87 3,1.58 4.5,2.46 v 4.35 l 4.4,2.29 v 4.53 c 1.7,0.7 3.3,1.56 4.7,2.1 v 4.54 l 4.5,2.45 v 4.53 c 2.9,2.09 5.8,4.38 9.2,6.82 v 4.34 c 5,4.55 10,9.09 15.7,13.47 l 2.1,6.79 c 3.1,1.4 5.9,2.98 9.2,4.56 4.4,5.05 8.9,10.48 13.2,15.72 h 4.5 c 2.4,2.79 4.7,6.09 7,8.88 h 4.5 l 2,4.53 c 2.5,0.9 4.8,1.59 6.9,2.3 v 2.26 h 4.7 l 2.1,4.72 c 2.8,0.51 6.1,1.2 8.9,2.1 0.9,1.39 1.5,2.8 2.3,4.51 4.5,1.43 9,2.82 13.6,4.38 v 2.46 h 4.5 v 2.1 c 4.6,1.56 8.9,2.95 13.5,4.52 v 2.28 h 6.8 v 2.08 h 4.2 v 2.3 c 4.7,1.04 9.4,1.55 13.8,2.43 v 2.1 h 4.3 v 2.45 h 9.1 v 2.25 h 6.8 v 2.1 h 8.9 v 2.29 h 9.1 v 2.25 h 9.1 v 2.27 h 13.5 v 2.29 h 13.5 v 2.1 h 15.7 v 2.41 h 27.1 v 2.29 h 601 c 19.2,0 43.7,-1.91 58.8,2.09 h 33.7 v 2.46 h 20.4 v 2.08 h 18 v 2.11 h 15.9 v 2.42 h 13.2 v 2.08 h 11.5 v 2.48 h 11.2 v 2.27 h 11.2 v 2.24 h 8.8 v 2.3 h 9.4 v 2.09 h 8.8 c 24.7,8.55 49.6,16.76 74.3,24.79 v 2.25 h 4.5 v 2.29 h 6.7 v 2.29 h 4.5 v 2.25 c 3.9,0.7 7.7,1.4 11.5,2.26 v 2.28 c 4.6,1.4 8.9,2.99 13.3,4.38 v 2.25 h 4.7 v 2.46 h 4.4 v 2.08 c 4.5,1.57 9,2.99 13.6,4.55 0.7,1.58 1.3,2.98 2.3,4.37 4.3,1.55 9,3.34 13.5,4.55 0.6,1.58 1.3,3.13 2.2,4.53 2.9,0.86 6,1.56 8.9,2.44 l 2.1,4.38 c 3.3,0.69 6.2,1.72 9.1,2.26 l 2.4,4.33 h 4.5 l 2.3,4.58 h 4.4 l 2.5,4.54 h 4.1 l 2.4,4.53 h 4.6 c 1.4,2.1 3.2,4.55 4.6,6.64 h 4.5 l 4.3,6.98 h 4.7 c 1.4,2.11 2.8,4.51 4.3,6.65 h 4.7 l 6.7,9.06 h 4.3 c 3.8,4.55 7.7,8.92 11.4,13.46 h 4.7 c 10.4,11.17 20.9,22.53 31.4,33.72 9.6,9.23 19.5,18.12 29,27.01 v 4.58 c 4.2,3.12 7.8,5.92 11.5,8.89 v 4.71 c 3.8,2.98 7.7,5.78 11.2,9.08 v 4.36 c 3.1,2.29 5.9,4.54 9,6.65 v 4.72 c 2.5,1.4 4.6,2.95 6.9,4.36 l 2.2,6.82 4.6,2.28 v 4.52 l 4.5,2.09 v 4.57 c 2.1,1.55 4.4,2.92 6.7,4.5 v 4.36 l 4.5,2.46 c 0.7,2.1 1.6,4.38 2,6.47 h 2.5 v 4.72 l 4.4,2.25 c 0.9,2.46 1.5,4.56 2.3,6.84 h 2 c 1.1,2.96 1.8,6.08 2.7,8.89 1.2,0.88 2.9,1.75 4.3,2.29 l 2.2,9.07 c 1.5,0.67 3.1,1.37 4.5,2.09 0.6,3.14 1.7,6.11 2.4,9.24 1.4,0.71 2.8,1.41 4.2,2.29 v 4.35 l 4.7,4.56 v 4.51 h 2.2 v 4.38 l 4.6,2.46 v 4.35 l 4.2,4.56 v 4.51 h 2.6 v 4.56 h 2.1 v 4.52 h 2.3 v 4.37 h 2.4 l 4.3,13.46 h 2.4 c 0.6,3.86 1.6,7.68 2.2,11.51 h 2.3 c 0.8,2.81 1.4,5.79 2.1,8.91 h 2.3 v 6.81 h 2.3 v 4.37 h 2.4 l 2.1,11.53 h 2.1 v 6.64 h 2.4 v 4.34 h 2.1 c 1.1,4.55 1.6,8.92 2.4,13.44 h 2.2 v 4.74 h 2.5 c 0.6,4.33 1.3,8.9 2.2,13.28 h 2.1 v 6.8 h 2.2 v 6.83 h 2.3 v 6.61 h 2.3 v 9.08 c 23.8,66.37 33.6,147.04 40.5,229.78 v 76.68 c 0,16.05 1,36.85 -2.1,49.39" /></g></g></g></svg>